<?xml version="1.0" encoding="UTF-8" standalone="no"?>
<!-- Created with Inkscape (http://www.inkscape.org/) -->

<svg
   width="120mm"
   height="120mm"
   viewBox="-60 -60 120 120"
   sodipodi:docname="busybox-1.37.0-defconfig-nonet-build.svg"
   version="1.1"
   id="svg3"
   xml:space="preserve"
   inkscape:version="1.4 (e7c3feb100, 2024-10-09)"
   inkscape:export-filename="cd.png"
   inkscape:export-xdpi="529.16669"
   inkscape:export-ydpi="529.16669"
   xmlns:inkscape="http://www.inkscape.org/namespaces/inkscape"
   xmlns:sodipodi="http://sodipodi.sourceforge.net/DTD/sodipodi-0.dtd"
   xmlns:xlink="http://www.w3.org/1999/xlink"
   xmlns="http://www.w3.org/2000/svg"
   xmlns:svg="http://www.w3.org/2000/svg"
   xmlns:rdf="http://www.w3.org/1999/02/22-rdf-syntax-ns#"
   xmlns:cc="http://creativecommons.org/ns#"
   xmlns:dc="http://purl.org/dc/elements/1.1/"><defs
     id="defs3"><pattern
       inkscape:collect="always"
       xlink:href="#shading27"
       preserveAspectRatio="xMidYMid"
       id="pattern51"
       patternTransform="translate(205.95316,1751.3205)" /><clipPath
       clipPathUnits="userSpaceOnUse"
       id="clipPath50"><path
         id="path50"
         style="stroke-width:0.1;stroke-linecap:square;paint-order:markers fill stroke;stop-color:#000000"
         d="m -880.82767,-187.29769 h 1640.84 v 73.28155 h -1640.84 z" /></clipPath><pattern
       patternUnits="userSpaceOnUse"
       width="565.45114"
       height="25.387499"
       patternTransform="translate(205.95316,1751.3205)"
       preserveAspectRatio="xMidYMid"
       id="shading27"
       style="fill:#000000"
       inkscape:label="Circle halftones shading"
       inkscape:collect="always"
       inkscape:isstock="true"><path
         id="use31"
         style="stroke-width:0.487199;stroke-linecap:square;paint-order:markers fill stroke;stop-color:#000000"
         d="m 760.01231,-187.29796 c 0,0.51981 -0.42139,0.9412 -0.9412,0.9412 -0.51981,0 -0.9412,-0.42139 -0.9412,-0.9412 0,-0.51981 0.42139,-0.9412 0.9412,-0.9412 0.51981,0 0.9412,0.42139 0.9412,0.9412 z m -38.03378,0 c 0,0.89093 -0.72224,1.61318 -1.61318,1.61318 -0.89093,0 -1.61318,-0.72225 -1.61318,-1.61318 0,-0.89093 0.72225,-1.61318 1.61318,-1.61318 0.89094,0 1.61318,0.72225 1.61318,1.61318 z m -38.03377,0 c 0,1.26206 -1.02311,2.28516 -2.28516,2.28516 -1.26206,0 -2.28516,-1.0231 -2.28516,-2.28516 0,-1.26206 1.0231,-2.28516 2.28516,-2.28516 1.26205,0 2.28516,1.0231 2.28516,2.28516 z m -38.03378,0 c 0,1.63318 -1.32396,2.95714 -2.95714,2.95714 -1.63319,0 -2.95714,-1.32396 -2.95714,-2.95714 0,-1.63318 1.32396,-2.95714 2.95714,-2.95714 1.63318,0 2.95714,1.32396 2.95714,2.95714 z m -38.03378,0 c 0,2.00431 -1.62481,3.62912 -3.62912,3.62912 -2.00431,0 -3.62912,-1.62481 -3.62912,-3.62912 0,-2.00431 1.62481,-3.62912 3.62912,-3.62912 2.00431,0 3.62912,1.62481 3.62912,3.62912 z m -38.03378,0 c 0,2.37543 -1.92566,4.3011 -4.3011,4.3011 -2.37543,0 -4.3011,-1.92567 -4.3011,-4.3011 0,-2.37543 1.92567,-4.3011 4.3011,-4.3011 2.37544,0 4.3011,1.92567 4.3011,4.3011 z m -38.03377,0 c 0,2.74656 -2.22653,4.97308 -4.97308,4.97308 -2.74656,0 -4.97308,-2.22652 -4.97308,-4.97308 0,-2.74655 2.22652,-4.97308 4.97308,-4.97308 2.74655,0 4.97308,2.22653 4.97308,4.97308 z m -38.03378,0 c 0,3.11768 -2.52738,5.64506 -5.64506,5.64506 -3.11768,0 -5.64506,-2.52738 -5.64506,-5.64506 0,-3.11768 2.52738,-5.64506 5.64506,-5.64506 3.11768,0 5.64506,2.52738 5.64506,5.64506 z m -38.03378,0 c 0,3.48881 -2.82823,6.31704 -6.31704,6.31704 -3.4888,0 -6.31704,-2.82823 -6.31704,-6.31704 0,-3.4888 2.82824,-6.31704 6.31704,-6.31704 3.48881,0 6.31704,2.82824 6.31704,6.31704 z m -38.03378,0 c 0,3.85993 -3.12908,6.98902 -6.98902,6.98902 -3.85993,0 -6.98902,-3.12909 -6.98902,-6.98902 0,-3.85993 3.1291,-6.98902 6.98902,-6.98902 3.85993,0 6.98902,3.12909 6.98902,6.98902 z m -38.03377,0 c 0,4.23106 -3.42995,7.661 -7.661,7.661 -4.23106,0 -7.661,-3.42994 -7.661,-7.661 0,-4.23105 3.42994,-7.661 7.661,-7.661 4.23105,0 7.661,3.42995 7.661,7.661 z m -38.03378,0 c 0,4.60218 -3.7308,8.33298 -8.33298,8.33298 -4.60218,0 -8.33298,-3.7308 -8.33298,-8.33298 0,-4.60218 3.7308,-8.33298 8.33298,-8.33298 4.60218,0 8.33298,3.7308 8.33298,8.33298 z m -38.03378,0 c 0,4.97331 -4.03165,9.00496 -9.00496,9.00496 -4.9733,0 -9.00496,-4.03165 -9.00496,-9.00496 0,-4.9733 4.03166,-9.00496 9.00496,-9.00496 4.9733,0 9.00496,4.03166 9.00496,9.00496 z m -38.03377,0 c 0,5.34443 -4.33252,9.67694 -9.67694,9.67694 -5.34443,0 -9.67694,-4.33251 -9.67694,-9.67694 0,-5.34442 4.33251,-9.67694 9.67694,-9.67694 5.34442,0 9.67694,4.33252 9.67694,9.67694 z m -38.03378,0 c 0,5.71555 -4.63337,10.34893 -10.34892,10.34893 -5.71555,0 -10.34892,-4.63338 -10.34892,-10.34893 0,-5.71555 4.63337,-10.34892 10.34892,-10.34892 5.71555,0 10.34892,4.63337 10.34892,10.34892 z m -38.03378,0 c 0,6.08668 -4.93422,11.02091 -11.0209,11.02091 -6.08668,0 -11.0209,-4.93423 -11.0209,-11.02091 0,-6.08667 4.93423,-11.0209 11.0209,-11.0209 6.08667,0 11.0209,4.93423 11.0209,11.0209 z m -38.03378,0 c 0,6.4578 -5.23507,11.69289 -11.69288,11.69289 -6.4578,0 -11.69288,-5.23509 -11.69288,-11.69289 0,-6.4578 5.23509,-11.69288 11.69288,-11.69288 6.4578,0 11.69288,5.23508 11.69288,11.69288 z m -38.03377,0 c 0,6.82893 -5.53594,12.36487 -12.36486,12.36487 -6.82893,0 -12.364863,-5.53594 -12.364863,-12.36487 0,-6.82892 5.535937,-12.36486 12.364863,-12.36486 6.82892,0 12.36486,5.53594 12.36486,12.36486 z m -38.033781,0 c 0,7.20005 -5.836789,13.03685 -13.036839,13.03685 -7.200051,0 -13.036841,-5.8368 -13.03684,-13.03685 -1e-6,-7.20004 5.836793,-13.03684 13.03684,-13.03684 7.200046,0 13.036839,5.8368 13.036839,13.03684 z m -38.033777,0 c 0,7.57118 -6.137644,13.70883 -13.70882,13.70883 -7.571175,0 -13.7088198,-6.13765 -13.7088197,-13.70883 -10e-8,-7.57117 6.1376487,-13.70882 13.7088197,-13.70882 7.571171,0 13.70882,6.13765 13.70882,13.70882 z m -38.033777,0 c 0,7.9423 -6.4385,14.38081 -14.3808,14.38081 -7.9423,0 -14.3808,-6.43851 -14.3808,-14.38081 0,-7.94229 6.438505,-14.3808 14.3808,-14.3808 7.942295,0 14.3808,6.43851 14.3808,14.3808 z m -38.033777,0 c 0,8.31343 -6.739356,15.05279 -15.05278,15.05279 -8.313425,0 -15.05278,-6.73936 -15.05278,-15.05279 0,-8.31342 6.73936,-15.05278 15.05278,-15.05278 8.313419,0 15.05278,6.73936 15.05278,15.05278 z m -38.033778,0 c 0,8.68455 -7.040211,15.72477 -15.72476,15.72477 -8.68455,0 -15.72476,-7.04022 -15.72476,-15.72477 0,-8.68454 7.04022,-15.72476 15.72476,-15.72476 8.684544,0 15.72476,7.04022 15.72476,15.72476 z m -38.03378,0 c 0,9.05568 -7.34106,16.39675 -16.39674,16.39675 -9.05567,0 -16.39674,-7.34107 -16.39674,-16.39675 0,-9.05566 7.34108,-16.39674 16.39674,-16.39674 9.05567,0 16.39674,7.34108 16.39674,16.39674 z m -38.03377,0 c 0,9.4268 -7.64193,17.06873 -17.06872,17.06873 -9.4268,0 -17.06872,-7.64193 -17.06872,-17.06873 0,-9.42679 7.64192,-17.06872 17.06872,-17.06872 9.42679,0 17.06872,7.64193 17.06872,17.06872 z m -38.03378,0 c 0,9.79793 -7.94278,17.74071 -17.7407,17.74071 -9.79792,0 -17.7407,-7.94278 -17.7407,-17.74071 0,-9.79791 7.94278,-17.7407 17.7407,-17.7407 9.79791,0 17.7407,7.94279 17.7407,17.7407 z m -38.03378,0 c 0,10.16905 -8.24363,18.41269 -18.41268,18.41269 -10.16905,0 -18.41268,-8.24364 -18.41268,-18.41269 0,-10.16904 8.24364,-18.41268 18.41268,-18.41268 10.16904,0 18.41268,8.24364 18.41268,18.41268 z m -38.03378,0 c 0,10.54017 -8.54448,19.08467 -19.08466,19.08467 -10.54017,0 -19.08466,-8.5445 -19.08466,-19.08467 0,-10.54016 8.5445,-19.08466 19.08466,-19.08466 10.54017,0 19.08466,8.5445 19.08466,19.08466 z m -38.03377,0 c 0,10.9113 -8.84535,19.75665 -19.75664,19.75665 -10.9113,0 -19.75664,-8.84535 -19.75664,-19.75665 0,-10.91129 8.84535,-19.75664 19.75664,-19.75664 10.91129,0 19.75664,8.84535 19.75664,19.75664 z m -38.03378,0 c 0,11.28242 -9.1462,20.42863 -20.42862,20.42863 -11.28242,0 -20.42862,-9.14621 -20.42862,-20.42863 0,-11.28241 9.14621,-20.42862 20.42862,-20.42862 11.28241,0 20.42862,9.14621 20.42862,20.42862 z m -38.03378,0 c 0,11.65355 -9.44705,21.10061 -21.1006,21.10061 -11.65354,0 -21.1006,-9.44706 -21.1006,-21.10061 0,-11.65353 9.44706,-21.1006 21.1006,-21.1006 11.65354,0 21.1006,9.44707 21.1006,21.1006 z m -38.03377,0 c 0,12.02467 -9.74792,21.77259 -21.77258,21.77259 -12.02467,0 -21.77258,-9.74792 -21.77258,-21.77259 0,-12.02466 9.74791,-21.77258 21.77258,-21.77258 12.02466,0 21.77258,9.74792 21.77258,21.77258 z m -38.03378,0 c 0,12.3958 -10.04877,22.44457 -22.44456,22.44457 -12.3958,0 -22.44456,-10.04877 -22.44456,-22.44457 0,-12.39578 10.04877,-22.44456 22.44456,-22.44456 12.39578,0 22.44456,10.04878 22.44456,22.44456 z m -38.03378,0 c 0,12.76692 -10.34962,23.11655 -23.11654,23.11655 -12.76692,0 -23.11654,-10.34963 -23.11654,-23.11655 0,-12.76691 10.34963,-23.11654 23.11654,-23.11654 12.76691,0 23.11654,10.34963 23.11654,23.11654 z m -38.03378,0 c 0,13.13805 -10.65047,23.78853 -23.78852,23.78853 -13.13804,0 -23.78852,-10.65048 -23.78852,-23.78853 0,-13.13803 10.65049,-23.78852 23.78852,-23.78852 13.13804,0 23.78852,10.65049 23.78852,23.78852 z m -38.03377,0 c 0,13.50917 -10.95134,24.46051 -24.4605,24.46051 -13.50917,0 -24.4605,-10.95134 -24.4605,-24.46051 0,-13.50915 10.95134,-24.4605 24.4605,-24.4605 13.50915,0 24.4605,10.95135 24.4605,24.4605 z m -38.03378,0 c 0,13.8803 -11.25219,25.13249 -25.13248,25.13249 -13.88029,0 -25.13248,-11.25219 -25.13248,-25.13249 0,-13.88028 11.2522,-25.13248 25.13248,-25.13248 13.88028,0 25.13248,11.2522 25.13248,25.13248 z m -38.03378,0 c 0,14.25142 -11.55304,25.80447 -25.80446,25.80447 -14.25141,0 -25.80446,-11.55305 -25.80446,-25.80447 0,-14.2514 11.55305,-25.80446 25.80446,-25.80446 14.25141,0 25.80446,11.55306 25.80446,25.80446 z m -38.03378,0 c 0,14.62255 -11.85389,26.47645 -26.47644,26.47645 -14.62254,0 -26.47644,-11.8539 -26.47644,-26.47645 0,-14.62253 11.85391,-26.47644 26.47644,-26.47644 14.62254,0 26.47644,11.85391 26.47644,26.47644 z m -38.03377,0 c 0,14.99367 -12.15476,27.14843 -27.14842,27.14843 -14.99367,0 -27.14842,-12.15476 -27.14842,-27.14843 0,-14.99365 12.15476,-27.14842 27.14842,-27.14842 14.99365,0 27.14842,12.15477 27.14842,27.14842 z m -38.03378,1e-5 c 0,15.36479 -12.45561,27.82041 -27.8204,27.82041 -15.36479,0 -27.8204,-12.45562 -27.8204,-27.82041 0,-15.36478 12.45562,-27.8204 27.8204,-27.8204 15.36478,0 27.8204,12.45562 27.8204,27.8204 z m 1466.15637,36.6408 c 0,0.51981 -0.42139,0.9412 -0.9412,0.9412 -0.51981,0 -0.9412,-0.42139 -0.9412,-0.9412 0,-0.51981 0.42139,-0.9412 0.9412,-0.9412 0.51981,0 0.9412,0.42139 0.9412,0.9412 z m -38.03377,0 c 0,0.89093 -0.72225,1.61318 -1.61318,1.61318 -0.89094,0 -1.61318,-0.72225 -1.61318,-1.61318 0,-0.89093 0.72224,-1.61318 1.61318,-1.61318 0.89093,0 1.61318,0.72225 1.61318,1.61318 z m -38.03378,0 c 0,1.26206 -1.0231,2.28516 -2.28516,2.28516 -1.26206,0 -2.28516,-1.0231 -2.28516,-2.28516 0,-1.26206 1.0231,-2.28516 2.28516,-2.28516 1.26206,0 2.28516,1.0231 2.28516,2.28516 z m -38.03378,0 c 0,1.63318 -1.32395,2.95714 -2.95714,2.95714 -1.63318,0 -2.95714,-1.32396 -2.95714,-2.95714 0,-1.63318 1.32396,-2.95714 2.95714,-2.95714 1.63318,0 2.95714,1.32396 2.95714,2.95714 z m -38.03378,0 c 0,2.00431 -1.62481,3.62912 -3.62912,3.62912 -2.0043,0 -3.62912,-1.62481 -3.62912,-3.62912 0,-2.00431 1.62482,-3.62912 3.62912,-3.62912 2.00431,0 3.62912,1.62481 3.62912,3.62912 z m -38.03377,0 c 0,2.37543 -1.92567,4.3011 -4.3011,4.3011 -2.37543,0 -4.3011,-1.92567 -4.3011,-4.3011 0,-2.37543 1.92567,-4.3011 4.3011,-4.3011 2.37543,0 4.3011,1.92567 4.3011,4.3011 z m -38.03378,0 c 0,2.74656 -2.22652,4.97308 -4.97308,4.97308 -2.74656,0 -4.97308,-2.22652 -4.97308,-4.97308 0,-2.74655 2.22652,-4.97308 4.97308,-4.97308 2.74656,0 4.97308,2.22653 4.97308,4.97308 z m -38.03378,0 c 0,3.11768 -2.52738,5.64506 -5.64506,5.64506 -3.11768,0 -5.64506,-2.52738 -5.64506,-5.64506 0,-3.11768 2.52738,-5.64506 5.64506,-5.64506 3.11768,0 5.64506,2.52738 5.64506,5.64506 z m -38.03377,0 c 0,3.48881 -2.82824,6.31704 -6.31704,6.31704 -3.48881,0 -6.31704,-2.82823 -6.31704,-6.31704 0,-3.4888 2.82823,-6.31704 6.31704,-6.31704 3.4888,0 6.31704,2.82824 6.31704,6.31704 z m -38.03378,0 c 0,3.85993 -3.12909,6.98902 -6.98902,6.98902 -3.85993,0 -6.98902,-3.12909 -6.98902,-6.98902 0,-3.85993 3.12909,-6.98902 6.98902,-6.98902 3.85993,0 6.98902,3.12909 6.98902,6.98902 z m -38.03378,0 c 0,4.23106 -3.42994,7.661 -7.661,7.661 -4.23105,0 -7.661,-3.42994 -7.661,-7.661 0,-4.23105 3.42995,-7.661 7.661,-7.661 4.23105,0 7.661,3.42995 7.661,7.661 z m -38.03378,0 c 0,4.60218 -3.7308,8.33298 -8.33298,8.33298 -4.60218,0 -8.33298,-3.7308 -8.33298,-8.33298 0,-4.60218 3.73081,-8.33298 8.33298,-8.33298 4.60218,0 8.33298,3.7308 8.33298,8.33298 z m -38.03377,0 c 0,4.97331 -4.03166,9.00496 -9.00496,9.00496 -4.97331,0 -9.00496,-4.03165 -9.00496,-9.00496 0,-4.9733 4.03166,-9.00496 9.00496,-9.00496 4.9733,0 9.00496,4.03166 9.00496,9.00496 z m -38.03378,0 c 0,5.34443 -4.33251,9.67694 -9.67694,9.67694 -5.34443,0 -9.67694,-4.33251 -9.67694,-9.67694 0,-5.34442 4.33251,-9.67694 9.67694,-9.67694 5.34442,0 9.67694,4.33252 9.67694,9.67694 z m -38.03378,0 c 0,5.71555 -4.63336,10.34893 -10.34892,10.34893 -5.71555,0 -10.34892,-4.63338 -10.34892,-10.34893 0,-5.71555 4.63337,-10.34892 10.34892,-10.34892 5.71555,0 10.34892,4.63337 10.34892,10.34892 z m -38.03377,0 c 0,6.08668 -4.93423,11.02091 -11.0209,11.02091 -6.08668,0 -11.0209,-4.93423 -11.0209,-11.02091 0,-6.08667 4.93422,-11.0209 11.0209,-11.0209 6.08667,0 11.0209,4.93423 11.0209,11.0209 z m -38.033782,0 c 0,6.4578 -5.235078,11.69289 -11.69288,11.69289 -6.457802,0 -11.69288,-5.23509 -11.69288,-11.69289 0,-6.4578 5.235082,-11.69288 11.69288,-11.69288 6.457798,0 11.69288,5.23508 11.69288,11.69288 z m -38.033777,0 c 0,6.82893 -5.535934,12.36487 -12.36486,12.36487 -6.828927,0 -12.36486,-5.53594 -12.36486,-12.36487 0,-6.82892 5.535937,-12.36486 12.36486,-12.36486 6.828922,0 12.36486,5.53594 12.36486,12.36486 z m -38.033778,0 c 0,7.20005 -5.836789,13.03685 -13.0368396,13.03685 -7.20005105,0 -13.0368401,-5.8368 -13.03684,-13.03685 -1e-7,-7.20004 5.83679345,-13.03684 13.03684,-13.03684 7.2000466,0 13.0368396,5.8368 13.0368396,13.03684 z m -38.033777,0 c 0,7.57118 -6.137644,13.70883 -13.70882,13.70883 -7.571175,0 -13.70882,-6.13765 -13.70882,-13.70883 0,-7.57117 6.137649,-13.70882 13.70882,-13.70882 7.571171,0 13.70882,6.13765 13.70882,13.70882 z m -38.033777,0 c 0,7.9423 -6.4385,14.38081 -14.3808,14.38081 -7.9423,0 -14.3808,-6.43851 -14.3808,-14.38081 0,-7.94229 6.438505,-14.3808 14.3808,-14.3808 7.942295,0 14.3808,6.43851 14.3808,14.3808 z m -38.033777,0 c 0,8.31343 -6.739352,15.05279 -15.052782,15.05279 -8.31342,0 -15.05278,-6.73936 -15.05278,-15.05279 0,-8.31342 6.73936,-15.05278 15.05278,-15.05278 8.31342,0 15.052782,6.73936 15.052782,15.05278 z m -38.033782,0 c 0,8.68455 -7.04021,15.72477 -15.72476,15.72477 -8.68454,0 -15.72476,-7.04022 -15.72476,-15.72477 0,-8.68454 7.04022,-15.72476 15.72476,-15.72476 8.68455,0 15.72476,7.04022 15.72476,15.72476 z m -38.03377,0 c 0,9.05568 -7.34107,16.39675 -16.39674,16.39675 -9.05568,0 -16.39674,-7.34107 -16.39674,-16.39675 0,-9.05566 7.34107,-16.39674 16.39674,-16.39674 9.05566,0 16.39674,7.34108 16.39674,16.39674 z m -38.03378,0 c 0,9.4268 -7.64192,17.06873 -17.06872,17.06873 -9.4268,0 -17.06872,-7.64193 -17.06872,-17.06873 0,-9.42679 7.64193,-17.06872 17.06872,-17.06872 9.42679,0 17.06872,7.64193 17.06872,17.06872 z m -38.03378,0 c 0,9.79793 -7.94277,17.74071 -17.7407,17.74071 -9.79792,0 -17.7407,-7.94278 -17.7407,-17.74071 0,-9.79791 7.94279,-17.7407 17.7407,-17.7407 9.79792,0 17.7407,7.94279 17.7407,17.7407 z m -38.03377,0 c 0,10.16905 -8.24364,18.41269 -18.41268,18.41269 -10.16905,0 -18.41268,-8.24364 -18.41268,-18.41269 0,-10.16904 8.24363,-18.41268 18.41268,-18.41268 10.16904,0 18.41268,8.24364 18.41268,18.41268 z m -38.03378,0 c 0,10.54017 -8.54449,19.08467 -19.08466,19.08467 -10.54017,0 -19.08466,-8.5445 -19.08466,-19.08467 0,-10.54016 8.54449,-19.08466 19.08466,-19.08466 10.54016,0 19.08466,8.5445 19.08466,19.08466 z m -38.03378,0 c 0,10.9113 -8.84534,19.75665 -19.75664,19.75665 -10.9113,0 -19.75664,-8.84535 -19.75664,-19.75665 0,-10.91129 8.84535,-19.75664 19.75664,-19.75664 10.91129,0 19.75664,8.84535 19.75664,19.75664 z m -38.03378,0 c 0,11.28242 -9.1462,20.42863 -20.42862,20.42863 -11.28242,0 -20.42862,-9.14621 -20.42862,-20.42863 0,-11.28241 9.14621,-20.42862 20.42862,-20.42862 11.28242,0 20.42862,9.14621 20.42862,20.42862 z m -38.03377,0 c 0,11.65355 -9.44706,21.10061 -21.1006,21.10061 -11.65355,0 -21.1006,-9.44706 -21.1006,-21.10061 0,-11.65353 9.44706,-21.1006 21.1006,-21.1006 11.65353,0 21.1006,9.44707 21.1006,21.1006 z m -38.03378,0 c 0,12.02467 -9.74791,21.77259 -21.77258,21.77259 -12.02467,0 -21.77258,-9.74792 -21.77258,-21.77259 0,-12.02466 9.74792,-21.77258 21.77258,-21.77258 12.02466,0 21.77258,9.74792 21.77258,21.77258 z m -38.03378,0 c 0,12.3958 -10.04876,22.44457 -22.44456,22.44457 -12.39579,0 -22.44456,-10.04877 -22.44456,-22.44457 0,-12.39578 10.04878,-22.44456 22.44456,-22.44456 12.39579,0 22.44456,10.04878 22.44456,22.44456 z m -38.03378,0 c 0,12.76692 -10.34962,23.11655 -23.11654,23.11655 -12.76691,0 -23.11654,-10.34963 -23.11654,-23.11655 0,-12.76691 10.34963,-23.11654 23.11654,-23.11654 12.76691,0 23.11654,10.34963 23.11654,23.11654 z m -38.03377,0 c 0,13.13805 -10.65048,23.78853 -23.78852,23.78853 -13.13805,0 -23.78852,-10.65048 -23.78852,-23.78853 0,-13.13803 10.65048,-23.78852 23.78852,-23.78852 13.13803,0 23.78852,10.65049 23.78852,23.78852 z m -38.03378,0 c 0,13.50917 -10.95133,24.46051 -24.4605,24.46051 -13.50917,0 -24.4605,-10.95134 -24.4605,-24.46051 0,-13.50915 10.95134,-24.4605 24.4605,-24.4605 13.50916,0 24.4605,10.95135 24.4605,24.4605 z m -38.03378,0 c 0,13.8803 -11.25219,25.13249 -25.13248,25.13249 -13.88029,0 -25.13248,-11.25219 -25.13248,-25.13249 0,-13.88028 11.2522,-25.13248 25.13248,-25.13248 13.88029,0 25.13248,11.2522 25.13248,25.13248 z m -38.03377,0 c 0,14.25142 -11.55305,25.80447 -25.80446,25.80447 -14.25142,0 -25.80446,-11.55305 -25.80446,-25.80447 0,-14.2514 11.55305,-25.80446 25.80446,-25.80446 14.2514,0 25.80446,11.55306 25.80446,25.80446 z m -38.03378,0 c 0,14.62255 -11.8539,26.47645 -26.47644,26.47645 -14.62254,0 -26.47644,-11.8539 -26.47644,-26.47645 0,-14.62253 11.85391,-26.47644 26.47644,-26.47644 14.62253,0 26.47644,11.85391 26.47644,26.47644 z m -38.03378,0 c 0,14.99367 -12.15475,27.14843 -27.14842,27.14843 -14.99366,0 -27.14842,-12.15476 -27.14842,-27.14843 0,-14.99365 12.15477,-27.14842 27.14842,-27.14842 14.99366,0 27.14842,12.15477 27.14842,27.14842 z m -38.03378,1e-5 c 0,15.36479 -12.45561,27.82041 -27.8204,27.82041 -15.36479,0 -27.8204,-12.45562 -27.8204,-27.82041 0,-15.36478 12.45562,-27.8204 27.8204,-27.8204 15.36478,0 27.8204,12.45562 27.8204,27.8204 z m 1576.54581,36.6408 c 0,0.51981 -0.42139,0.9412 -0.9412,0.9412 -0.51981,0 -0.9412,-0.42139 -0.9412,-0.9412 0,-0.51981 0.42139,-0.9412 0.9412,-0.9412 0.51981,0 0.9412,0.42139 0.9412,0.9412 z m -38.03378,0 c 0,0.89093 -0.72224,1.61318 -1.61318,1.61318 -0.89093,0 -1.61318,-0.72225 -1.61318,-1.61318 0,-0.89093 0.72225,-1.61318 1.61318,-1.61318 0.89094,0 1.61318,0.72225 1.61318,1.61318 z m -38.03377,0 c 0,1.26206 -1.02311,2.28516 -2.28516,2.28516 -1.26206,0 -2.28516,-1.0231 -2.28516,-2.28516 0,-1.26206 1.0231,-2.28516 2.28516,-2.28516 1.26205,0 2.28516,1.0231 2.28516,2.28516 z m -38.03378,0 c 0,1.63318 -1.32396,2.95714 -2.95714,2.95714 -1.63319,0 -2.95714,-1.32396 -2.95714,-2.95714 0,-1.63318 1.32396,-2.95714 2.95714,-2.95714 1.63318,0 2.95714,1.32396 2.95714,2.95714 z m -38.03378,0 c 0,2.00431 -1.62481,3.62912 -3.62912,3.62912 -2.00431,0 -3.62912,-1.62481 -3.62912,-3.62912 0,-2.00431 1.62481,-3.62912 3.62912,-3.62912 2.00431,0 3.62912,1.62481 3.62912,3.62912 z m -38.03378,0 c 0,2.37543 -1.92566,4.3011 -4.3011,4.3011 -2.37543,0 -4.3011,-1.92567 -4.3011,-4.3011 0,-2.37543 1.92567,-4.3011 4.3011,-4.3011 2.37544,0 4.3011,1.92567 4.3011,4.3011 z m -38.03377,0 c 0,2.74656 -2.22653,4.97308 -4.97308,4.97308 -2.74656,0 -4.97308,-2.22652 -4.97308,-4.97308 0,-2.74655 2.22652,-4.97308 4.97308,-4.97308 2.74655,0 4.97308,2.22653 4.97308,4.97308 z m -38.03378,0 c 0,3.11768 -2.52738,5.64506 -5.64506,5.64506 -3.11768,0 -5.64506,-2.52738 -5.64506,-5.64506 0,-3.11768 2.52738,-5.64506 5.64506,-5.64506 3.11768,0 5.64506,2.52738 5.64506,5.64506 z m -38.03378,0 c 0,3.48881 -2.82823,6.31704 -6.31704,6.31704 -3.4888,0 -6.31704,-2.82823 -6.31704,-6.31704 0,-3.4888 2.82824,-6.31704 6.31704,-6.31704 3.48881,0 6.31704,2.82824 6.31704,6.31704 z m -38.03378,0 c 0,3.85993 -3.12908,6.98902 -6.98902,6.98902 -3.85993,0 -6.98902,-3.12909 -6.98902,-6.98902 0,-3.85993 3.1291,-6.98902 6.98902,-6.98902 3.85993,0 6.98902,3.12909 6.98902,6.98902 z m -38.03377,0 c 0,4.23106 -3.42995,7.661 -7.661,7.661 -4.23106,0 -7.661,-3.42994 -7.661,-7.661 0,-4.23105 3.42994,-7.661 7.661,-7.661 4.23105,0 7.661,3.42995 7.661,7.661 z m -38.03378,0 c 0,4.60218 -3.7308,8.33298 -8.33298,8.33298 -4.60218,0 -8.33298,-3.7308 -8.33298,-8.33298 0,-4.60218 3.7308,-8.33298 8.33298,-8.33298 4.60218,0 8.33298,3.7308 8.33298,8.33298 z m -38.03378,0 c 0,4.97331 -4.03165,9.00496 -9.00496,9.00496 -4.9733,0 -9.00496,-4.03165 -9.00496,-9.00496 0,-4.9733 4.03166,-9.00496 9.00496,-9.00496 4.9733,0 9.00496,4.03166 9.00496,9.00496 z m -38.03377,0 c 0,5.34443 -4.33252,9.67694 -9.67694,9.67694 -5.34443,0 -9.67694,-4.33251 -9.67694,-9.67694 0,-5.34442 4.33251,-9.67694 9.67694,-9.67694 5.34442,0 9.67694,4.33252 9.67694,9.67694 z m -38.03378,0 c 0,5.71555 -4.63337,10.34893 -10.34892,10.34893 -5.71555,0 -10.34892,-4.63338 -10.34892,-10.34893 0,-5.71555 4.63337,-10.34892 10.34892,-10.34892 5.71555,0 10.34892,4.63337 10.34892,10.34892 z m -38.03378,0 c 0,6.08668 -4.93422,11.02091 -11.0209,11.02091 -6.08668,0 -11.0209,-4.93423 -11.0209,-11.02091 0,-6.08667 4.93423,-11.0209 11.0209,-11.0209 6.08667,0 11.0209,4.93423 11.0209,11.0209 z m -38.03378,0 c 0,6.4578 -5.23507,11.69289 -11.69288,11.69289 -6.4578,0 -11.69288,-5.23509 -11.69288,-11.69289 0,-6.4578 5.23509,-11.69288 11.69288,-11.69288 6.4578,0 11.69288,5.23508 11.69288,11.69288 z m -38.03377,0 c 0,6.82893 -5.53594,12.36487 -12.36486,12.36487 -6.82893,0 -12.364863,-5.53594 -12.364863,-12.36487 0,-6.82892 5.535937,-12.36486 12.364863,-12.36486 6.82892,0 12.36486,5.53594 12.36486,12.36486 z m -38.033781,0 c 0,7.20005 -5.836789,13.03685 -13.036839,13.03685 -7.200051,0 -13.036841,-5.8368 -13.03684,-13.03685 -1e-6,-7.20004 5.836793,-13.03684 13.03684,-13.03684 7.200046,0 13.036839,5.8368 13.036839,13.03684 z m -38.033777,0 c 0,7.57118 -6.137644,13.70883 -13.70882,13.70883 -7.571175,0 -13.7088198,-6.13765 -13.7088197,-13.70883 -10e-8,-7.57117 6.1376487,-13.70882 13.7088197,-13.70882 7.571171,0 13.70882,6.13765 13.70882,13.70882 z m -38.033777,0 c 0,7.9423 -6.4385,14.380808 -14.3808,14.380808 -7.9423,0 -14.3808,-6.438508 -14.3808,-14.380808 0,-7.94229 6.438505,-14.3808 14.3808,-14.3808 7.942295,0 14.3808,6.43851 14.3808,14.3808 z m -38.033777,0 c 0,8.31343 -6.739356,15.052788 -15.05278,15.052788 -8.313425,0 -15.05278,-6.739358 -15.05278,-15.052788 0,-8.31342 6.73936,-15.05278 15.05278,-15.05278 8.313419,0 15.05278,6.73936 15.05278,15.05278 z m -38.033778,0 c 0,8.68455 -7.040211,15.724768 -15.72476,15.724768 -8.68455,0 -15.72476,-7.040218 -15.72476,-15.724768 0,-8.68454 7.04022,-15.72476 15.72476,-15.72476 8.684544,0 15.72476,7.04022 15.72476,15.72476 z m -38.03378,0 c 0,9.05568 -7.34106,16.396749 -16.39674,16.396749 -9.05567,0 -16.39674,-7.341069 -16.39674,-16.396749 0,-9.05566 7.34108,-16.39674 16.39674,-16.39674 9.05567,0 16.39674,7.34108 16.39674,16.39674 z m -38.03377,0 c 0,9.4268 -7.64193,17.068729 -17.06872,17.068729 -9.4268,0 -17.06872,-7.641929 -17.06872,-17.068729 0,-9.42679 7.64192,-17.06872 17.06872,-17.06872 9.42679,0 17.06872,7.64193 17.06872,17.06872 z m -38.03378,0 c 0,9.79793 -7.94278,17.740709 -17.7407,17.740709 -9.79792,0 -17.7407,-7.942779 -17.7407,-17.740709 0,-9.79791 7.94278,-17.7407 17.7407,-17.7407 9.79791,0 17.7407,7.94279 17.7407,17.7407 z m -38.03378,0 c 0,10.16905 -8.24363,18.41269 -18.41268,18.41269 -10.16905,0 -18.41268,-8.24364 -18.41268,-18.41269 0,-10.16904 8.24364,-18.41268 18.41268,-18.41268 10.16904,0 18.41268,8.24364 18.41268,18.41268 z m -38.03378,0 c 0,10.54017 -8.54448,19.08467 -19.08466,19.08467 -10.54017,0 -19.08466,-8.5445 -19.08466,-19.08467 0,-10.54016 8.5445,-19.08466 19.08466,-19.08466 10.54017,0 19.08466,8.5445 19.08466,19.08466 z m -38.03377,0 c 0,10.9113 -8.84535,19.756651 -19.75664,19.756651 -10.9113,0 -19.75664,-8.845351 -19.75664,-19.756651 0,-10.91129 8.84535,-19.75664 19.75664,-19.75664 10.91129,0 19.75664,8.84535 19.75664,19.75664 z m -38.03378,0 c 0,11.28242 -9.1462,20.428631 -20.42862,20.428631 -11.28242,0 -20.42862,-9.146211 -20.42862,-20.428631 0,-11.28241 9.14621,-20.42862 20.42862,-20.42862 11.28241,0 20.42862,9.14621 20.42862,20.42862 z m -38.03378,0 c 0,11.65355 -9.44705,21.100611 -21.1006,21.100611 -11.65354,0 -21.1006,-9.447061 -21.1006,-21.100611 0,-11.65353 9.44706,-21.1006 21.1006,-21.1006 11.65354,0 21.1006,9.44707 21.1006,21.1006 z m -38.03377,0 c 0,12.02467 -9.74792,21.772592 -21.77258,21.772592 -12.02467,0 -21.77258,-9.747922 -21.77258,-21.772592 0,-12.02466 9.74791,-21.77258 21.77258,-21.77258 12.02466,0 21.77258,9.74792 21.77258,21.77258 z m -38.03378,0 c 0,12.3958 -10.04877,22.444572 -22.44456,22.444572 -12.3958,0 -22.44456,-10.048772 -22.44456,-22.444572 0,-12.39578 10.04877,-22.44456 22.44456,-22.44456 12.39578,0 22.44456,10.04878 22.44456,22.44456 z m -38.03378,0 c 0,12.76692 -10.34962,23.116552 -23.11654,23.116552 -12.76692,0 -23.11654,-10.349632 -23.11654,-23.116552 0,-12.76691 10.34963,-23.11654 23.11654,-23.11654 12.76691,0 23.11654,10.34963 23.11654,23.11654 z m -38.03378,0 c 0,13.13805 -10.65047,23.788533 -23.78852,23.788533 -13.13804,0 -23.78852,-10.650483 -23.78852,-23.788533 0,-13.13803 10.65049,-23.78852 23.78852,-23.78852 13.13804,0 23.78852,10.65049 23.78852,23.78852 z m -38.03377,0 c 0,13.50917 -10.95134,24.460513 -24.4605,24.460513 -13.50917,0 -24.4605,-10.951343 -24.4605,-24.460513 0,-13.50915 10.95134,-24.4605 24.4605,-24.4605 13.50915,0 24.4605,10.95135 24.4605,24.4605 z m -38.03378,0 c 0,13.8803 -11.25219,25.132494 -25.13248,25.132494 -13.88029,0 -25.13248,-11.252194 -25.13248,-25.132494 0,-13.88028 11.2522,-25.13248 25.13248,-25.13248 13.88028,0 25.13248,11.2522 25.13248,25.13248 z m -38.03378,0 c 0,14.251421 -11.55304,25.804474 -25.80446,25.804474 -14.25141,0 -25.80446,-11.553053 -25.80446,-25.804474 0,-14.2514 11.55305,-25.80446 25.80446,-25.80446 14.25141,0 25.80446,11.55306 25.80446,25.80446 z m -38.03378,0 c 0,14.622546 -11.85389,26.476454 -26.47644,26.476454 -14.62254,0 -26.47644,-11.853908 -26.47644,-26.476454 0,-14.62253 11.85391,-26.47644 26.47644,-26.47644 14.62254,0 26.47644,11.85391 26.47644,26.47644 z m -38.03377,0 c 0,14.99367 -12.15476,27.148435 -27.14842,27.148435 -14.99367,0 -27.14842,-12.154765 -27.14842,-27.148435 0,-14.99365 12.15476,-27.14842 27.14842,-27.14842 14.99365,0 27.14842,12.15477 27.14842,27.14842 z m -38.03378,1e-5 c 0,15.364785 -12.45561,27.820405 -27.8204,27.820405 -15.36479,0 -27.8204,-12.45562 -27.8204,-27.820405 0,-15.36478 12.45562,-27.8204 27.8204,-27.8204 15.36478,0 27.8204,12.45562 27.8204,27.8204 z"
         sodipodi:nodetypes="ssssssssss"
         transform="matrix(0.3464378,0,0,0.3464378,302.15415,64.887)"
         clip-path="url(#clipPath52)" /></pattern><clipPath
       clipPathUnits="userSpaceOnUse"
       id="clipPath52"><path
         id="path52"
         style="stroke-width:0.1;stroke-linecap:square;paint-order:markers fill stroke;stop-color:#000000"
         d="m -880.82767,-187.29769 h 1640.84 v 73.28155 h -1640.84 z" /></clipPath><linearGradient
       id="linearGradient13"
       inkscape:collect="always"><stop
         style="stop-color:#f9f9f9;stop-opacity:1;"
         offset="0"
         id="stop14" /><stop
         style="stop-color:#fafafa;stop-opacity:1;"
         offset="0.49886104"
         id="stop21" /><stop
         style="stop-color:#8a8a8a;stop-opacity:1;"
         offset="0.49886104"
         id="stop19" /><stop
         style="stop-color:#fbfbfb;stop-opacity:1;"
         offset="0.51480639"
         id="stop20" /><stop
         style="stop-color:#ffffff;stop-opacity:1;"
         offset="0.67425972"
         id="stop18" /><stop
         style="stop-color:#8f8f8f;stop-opacity:1;"
         offset="0.69248289"
         id="stop16" /><stop
         style="stop-color:#ffffff;stop-opacity:1;"
         offset="0.70159453"
         id="stop17" /><stop
         style="stop-color:#eaeaea;stop-opacity:1;"
         offset="1"
         id="stop15" /></linearGradient><linearGradient
       id="linearGradient8"
       inkscape:collect="always"><stop
         style="stop-color:#cfcfcf;stop-opacity:1;"
         offset="0"
         id="stop9" /><stop
         style="stop-color:#c0c0c0;stop-opacity:1;"
         offset="0.14578587"
         id="stop13" /><stop
         style="stop-color:#d3d3d3;stop-opacity:1;"
         offset="0.39179951"
         id="stop10" /><stop
         style="stop-color:#c9c9c9;stop-opacity:1;"
         offset="0.75170843"
         id="stop11" /><stop
         style="stop-color:#e5e5e5;stop-opacity:1;"
         offset="0.99772209"
         id="stop8" /></linearGradient><radialGradient
       inkscape:collect="always"
       xlink:href="#linearGradient8"
       id="radialGradient9"
       cx="0"
       cy="0"
       fx="0"
       fy="0"
       r="60.025"
       gradientUnits="userSpaceOnUse" /><radialGradient
       inkscape:collect="always"
       xlink:href="#linearGradient13"
       id="radialGradient15"
       cx="0"
       cy="0"
       fx="0"
       fy="0"
       r="19.025"
       gradientUnits="userSpaceOnUse" /><inkscape:path-effect
       is_visible="true"
       id="path-effect29672-0"
       effect="spiro" /><inkscape:path-effect
       is_visible="true"
       id="path-effect29678-1"
       effect="spiro" /><inkscape:path-effect
       is_visible="true"
       id="path-effect29678-4-6"
       effect="spiro" /><inkscape:path-effect
       is_visible="true"
       id="path-effect28714-5"
       effect="spiro" /><inkscape:path-effect
       is_visible="true"
       id="path-effect29721-2"
       effect="spiro" /><inkscape:path-effect
       is_visible="true"
       id="path-effect28463-8-0"
       effect="spiro" /><inkscape:path-effect
       is_visible="true"
       id="path-effect28463-0-7"
       effect="spiro" /><linearGradient
       id="linearGradient28799-5-5"><stop
         id="stop28801-1-9"
         offset="0"
         style="stop-color:#fefefc;stop-opacity:1;" /><stop
         style="stop-color:#fefefc;stop-opacity:1"
         offset="0.75733864"
         id="stop28807-2-6" /><stop
         id="stop28803-6-3"
         offset="1"
         style="stop-color:#d4d4d4;stop-opacity:1" /></linearGradient><inkscape:path-effect
       is_visible="true"
       id="path-effect28797-8-1"
       effect="spiro" /><inkscape:path-effect
       is_visible="true"
       id="path-effect28797-81"
       effect="spiro" /><inkscape:path-effect
       is_visible="true"
       id="path-effect28273-4-2"
       effect="spiro" /><linearGradient
       id="linearGradient28853-5"><stop
         id="stop28855-3"
         offset="0"
         style="stop-color:#020204;stop-opacity:1" /><stop
         style="stop-color:#020204;stop-opacity:1"
         offset="0.73448181"
         id="stop28865-0" /><stop
         id="stop28857-9"
         offset="1"
         style="stop-color:#5c5c5c;stop-opacity:1;" /></linearGradient><inkscape:path-effect
       is_visible="true"
       id="path-effect28851-0"
       effect="spiro" /><inkscape:path-effect
       is_visible="true"
       id="path-effect28881-6"
       effect="spiro" /><linearGradient
       id="linearGradient28935-8"><stop
         id="stop28937-7"
         offset="0"
         style="stop-color:#949494;stop-opacity:0.39215687;" /><stop
         style="stop-color:#949494;stop-opacity:1;"
         offset="0.5"
         id="stop28943-3" /><stop
         id="stop28939-8"
         offset="1"
         style="stop-color:#949494;stop-opacity:0.39215687;" /></linearGradient><linearGradient
       id="linearGradient28976-3"><stop
         id="stop28978-7"
         offset="0"
         style="stop-color:#747474;stop-opacity:1" /><stop
         style="stop-color:#8c8c8c;stop-opacity:1;"
         offset="0.125"
         id="stop29259-5" /><stop
         style="stop-color:#a4a4a4;stop-opacity:1;"
         offset="0.25"
         id="stop29257-0" /><stop
         style="stop-color:#d4d4d4;stop-opacity:1"
         offset="0.5"
         id="stop28984-4" /><stop
         id="stop28986-0"
         offset="0.61919296"
         style="stop-color:#d4d4d4;stop-opacity:1" /><stop
         id="stop28980-2"
         offset="1"
         style="stop-color:#7c7c7c;stop-opacity:1" /></linearGradient><inkscape:path-effect
       is_visible="true"
       id="path-effect28974-8"
       effect="spiro" /><clipPath
       id="clipPath29028-5"
       clipPathUnits="userSpaceOnUse"><path
         sodipodi:nodetypes="aaaaaaaa"
         inkscape:connector-curvature="0"
         id="path29030-7"
         d="m 85.75,122.36218 c -2.780425,1.91023 -5.110569,4.57487 -6.25,7.75 -1.436029,4.00163 -0.885838,8.48071 0.5,12.5 1.419488,4.11688 3.793788,8.04098 7.37932,10.51234 1.792766,1.23567 3.868091,2.08301 6.030402,2.33859 2.162311,0.25558 4.409274,-0.0949 6.340278,-1.10093 2.35312,-1.22596 4.14782,-3.37278 5.26217,-5.78076 1.11436,-2.40798 1.5888,-5.0701 1.73783,-7.71924 0.18989,-3.37546 -0.14047,-6.80646 -1.25,-10 -1.20527,-3.46909 -3.39005,-6.67055 -6.472754,-8.6666 -1.541351,-0.99803 -3.291947,-1.68356 -5.110883,-1.93515 -1.818936,-0.25158 -3.704766,-0.0633 -5.416363,0.60175 -0.975471,0.37901 -1.887438,0.9074 -2.75,1.5"
         style="fill:url(#radialGradient29032);fill-opacity:1;stroke:none" /></clipPath><linearGradient
       id="linearGradient29336-6"><stop
         id="stop29338-1"
         offset="0"
         style="stop-color:#646464;stop-opacity:0" /><stop
         style="stop-color:#646464;stop-opacity:0.5825243"
         offset="0.30628255"
         id="stop29344-7" /><stop
         id="stop29354-5"
         offset="0.47000006"
         style="stop-color:#646464;stop-opacity:1" /><stop
         style="stop-color:#646464;stop-opacity:0.25728154"
         offset="0.72834015"
         id="stop29356-3" /><stop
         id="stop29340-6"
         offset="1"
         style="stop-color:#646464;stop-opacity:0;" /></linearGradient><inkscape:path-effect
       is_visible="true"
       id="path-effect29455-3"
       effect="spiro" /><linearGradient
       id="linearGradient29477-3"><stop
         id="stop29479-5"
         offset="0"
         style="stop-color:#757574;stop-opacity:0" /><stop
         style="stop-color:#757574;stop-opacity:1;"
         offset="0.26291031"
         id="stop29487-5" /><stop
         style="stop-color:#757574;stop-opacity:1;"
         offset="0.5"
         id="stop29485-0" /><stop
         id="stop29481-3"
         offset="1"
         style="stop-color:#757574;stop-opacity:0" /></linearGradient><linearGradient
       id="linearGradient28469-0"><stop
         style="stop-color:#d2940a;stop-opacity:1"
         offset="0"
         id="stop28479-4" /><stop
         style="stop-color:#d89c08;stop-opacity:1"
         offset="0.75143719"
         id="stop28477-2" /><stop
         id="stop28485-7"
         offset="0.86579126"
         style="stop-color:#b67e07;stop-opacity:1;" /><stop
         id="stop28473-1"
         offset="1"
         style="stop-color:#946106;stop-opacity:1" /></linearGradient><inkscape:path-effect
       is_visible="true"
       id="path-effect28463-4"
       effect="spiro" /><inkscape:path-effect
       is_visible="true"
       id="path-effect28489-4"
       effect="spiro" /><inkscape:path-effect
       is_visible="true"
       id="path-effect28273-54-7"
       effect="spiro" /><linearGradient
       id="linearGradient28275-8"><stop
         id="stop28277-1"
         offset="0"
         style="stop-color:#ad780a;stop-opacity:1" /><stop
         style="stop-color:#d89e08;stop-opacity:1"
         offset="0.11972899"
         id="stop28291-9" /><stop
         style="stop-color:#edb80b;stop-opacity:1"
         offset="0.25514477"
         id="stop28289-6" /><stop
         style="stop-color:#ebc80d;stop-opacity:1"
         offset="0.39194193"
         id="stop28287-6" /><stop
         style="stop-color:#f5d838;stop-opacity:1"
         offset="0.52741116"
         id="stop28285-7" /><stop
         style="stop-color:#f6d811;stop-opacity:1"
         offset="0.76906693"
         id="stop28283-7" /><stop
         id="stop28279-5"
         offset="1"
         style="stop-color:#f5cd31;stop-opacity:1" /></linearGradient><inkscape:path-effect
       is_visible="true"
       id="path-effect28273-44"
       effect="spiro" /><inkscape:path-effect
       is_visible="true"
       id="path-effect28384-7"
       effect="spiro" /><linearGradient
       id="linearGradient29529-6"><stop
         id="stop29531-0"
         offset="0"
         style="stop-color:#3a2903;stop-opacity:1;" /><stop
         style="stop-color:#735208;stop-opacity:1"
         offset="0.55472803"
         id="stop29539-7" /><stop
         id="stop29533-8"
         offset="1"
         style="stop-color:#ac8c04;stop-opacity:1" /></linearGradient><inkscape:path-effect
       is_visible="true"
       id="path-effect29553-7"
       effect="spiro" /><clipPath
       id="clipPath29644-8"
       clipPathUnits="userSpaceOnUse"><path
         sodipodi:nodetypes="zzzzzzz"
         inkscape:connector-curvature="0"
         id="path29646-8"
         d="m 54.232441,122.36218 c -1.780966,0.097 -3.484616,0.91899 -4.787851,2.1367 -1.303235,1.21771 -2.221372,2.81176 -2.786181,4.50357 -1.129618,3.38363 -0.875481,7.05177 -0.618698,10.60973 0.23251,3.22162 0.470404,6.50533 1.676785,9.50158 0.60319,1.49813 1.450247,2.91021 2.580338,4.06395 1.130092,1.15374 2.551736,2.04189 4.118297,2.43447 1.468838,0.36809 3.038161,0.29183 4.482784,-0.16209 1.444623,-0.45391 2.763917,-1.27887 3.846236,-2.33791 1.57904,-1.54507 2.643262,-3.5662 3.253449,-5.68947 0.610186,-2.12328 0.784157,-4.35155 0.752401,-6.56053 -0.03974,-2.76435 -0.400909,-5.53851 -1.265755,-8.16439 -0.864846,-2.62588 -2.245742,-5.10327 -4.172795,-7.08561 -0.933308,-0.96009 -1.997766,-1.80513 -3.198586,-2.39747 -1.200819,-0.59233 -2.54344,-0.92535 -3.880424,-0.85253"
         style="fill:url(#radialGradient29648);fill-opacity:1;stroke:none" /></clipPath><inkscape:path-effect
       is_visible="true"
       id="path-effect29707-7-6"
       effect="spiro" /><clipPath
       clipPathUnits="userSpaceOnUse"
       id="clipPath14656-7"><path
         sodipodi:nodetypes="aaaaassssaaaaaa"
         inkscape:connector-curvature="0"
         d="m 304.84727,225.44951 c 6.01627,4.92338 9.77707,12.317 10.94319,20.00305 1.8254,12.03148 -2.34636,24.07488 -6.44591,35.53273 -0.81749,2.28481 -1.63978,4.59033 -1.96473,6.99513 -0.32495,2.4048 -0.11897,4.94825 1.02948,7.08594 1.30279,2.42497 3.73227,4.12469 6.36677,4.92292 2.58877,0.78438 5.39365,0.76103 8.01466,0.0922 2.62101,-0.66882 5.06097,-1.96774 7.18716,-3.63996 5.48002,-4.30997 8.75799,-10.98552 10.01043,-17.84394 1.25243,-6.85841 0.63908,-13.92879 -0.551,-20.7983 -1.62313,-9.36916 -4.30898,-18.53961 -7.74003,-27.40773 -2.51766,-6.50732 -5.46794,-12.91081 -9.61753,-18.52016 -4.04611,-5.46946 -9.16208,-10.08954 -13.10336,-15.63502 -2.73209,-3.84412 -4.89983,-8.13097 -8.1917,-11.50812 -1.64594,-1.68858 -3.57654,-3.13527 -5.76975,-4.00143 -2.19321,-0.86616 -4.66356,-1.12446 -6.93254,-0.48249 -1.50468,0.42573 -2.89193,1.23739 -4.03791,2.30136 -1.14598,1.06397 -2.05268,2.37637 -2.69275,3.80312 -1.28015,2.85349 -1.47719,6.11241 -0.96512,9.1977 0.66114,3.98343 2.44407,7.69333 4.46569,11.18873 2.27396,3.93169 4.918,7.71926 8.38442,10.65407 3.5985,3.04664 7.96161,5.07413 11.61053,8.0602"
         id="path14658-9"
         style="fill:none;stroke:#c17d11;stroke-width:1px;stroke-linecap:butt;stroke-linejoin:miter;stroke-opacity:1" /></clipPath><inkscape:path-effect
       is_visible="true"
       id="path-effect4500-7"
       effect="spiro" /><inkscape:path-effect
       is_visible="true"
       id="path-effect4582-3"
       effect="spiro" /><inkscape:path-effect
       effect="spiro"
       id="path-effect14300-7"
       is_visible="true" /><clipPath
       clipPathUnits="userSpaceOnUse"
       id="clipPath14489-3"><path
         style="fill:url(#linearGradient14493);fill-opacity:1;stroke:none"
         d="m 516.00562,331.8756 c -0.6714,1.71905 -1.62682,3.32679 -2.81579,4.73826 -2.6238,3.11482 -6.268,5.17039 -9.89648,7.01985 -6.1886,3.15437 -12.60169,5.92177 -18.41964,9.71654 -3.89802,2.54249 -7.4959,5.52671 -10.86016,8.74238 -2.87719,2.75012 -5.60582,5.68745 -8.83247,8.01771 -3.25567,2.35122 -7.01915,4.05426 -10.99061,4.6502 -4.83026,0.72481 -9.82134,-0.21289 -14.29898,-2.16416 -3.13754,-1.36728 -6.15569,-3.3229 -7.96301,-6.22931 -1.81425,-2.91754 -2.22807,-6.48813 -2.23266,-9.92375 -0.008,-6.07666 1.11824,-12.09004 2.17848,-18.07349 0.88097,-4.97177 1.71949,-9.95483 2.26013,-14.97502 0.98337,-9.13118 0.9763,-18.35278 0.3199,-27.51327 -0.10993,-1.53416 -0.23754,-3.0832 -0.008,-4.60412 0.22922,-1.52092 0.85475,-3.0367 2.02069,-4.03986 1.07696,-0.9266 2.52093,-1.33598 3.93947,-1.4145 1.41854,-0.0785 2.83404,0.14655 4.23982,0.35197 3.31254,0.48405 6.65159,0.8649 9.88917,1.71656 2.04284,0.53738 4.03315,1.25925 6.0722,1.81081 3.40258,0.92039 6.96639,1.36144 10.46739,0.95192 3.76917,-0.44089 7.42987,-1.85678 11.22363,-1.76474 1.55658,0.0378 3.1015,0.33171 4.58649,0.79985 1.51539,0.47772 3.00914,1.16182 4.12281,2.29512 0.84639,0.8613 1.43579,1.94539 1.87872,3.06879 0.65982,1.67352 1.01492,3.457 1.16703,5.24945 0.13475,1.58788 0.11343,3.19441 0.41433,4.75933 0.49503,2.57458 1.84746,4.92305 3.52848,6.93494 1.68102,2.01189 3.68982,3.72048 5.69641,5.40783 1.99908,1.68103 4.0106,3.35469 6.16708,4.82839 1.0121,0.69165 2.05642,1.33949 3.01736,2.10062 0.96094,0.76113 1.84466,1.6468 2.44543,2.71535 0.81492,1.44944 1.06377,3.2077 0.68307,4.82635 l 2e-5,0"
         id="path14491-6"
         inkscape:connector-curvature="0"
         sodipodi:nodetypes="aaaaaaaaaaaaaaaaaaaaaaaacscaa" /></clipPath><inkscape:path-effect
       effect="spiro"
       id="path-effect14300-2-7"
       is_visible="true" /><clipPath
       clipPathUnits="userSpaceOnUse"
       id="clipPath14481-1"><path
         style="fill:url(#linearGradient14485);fill-opacity:1;stroke:none"
         d="m 516.00562,331.8756 c -0.6714,1.71905 -1.62682,3.32679 -2.81579,4.73826 -2.6238,3.11482 -6.268,5.17039 -9.89648,7.01985 -6.1886,3.15437 -12.60169,5.92177 -18.41964,9.71654 -3.89802,2.54249 -7.4959,5.52671 -10.86016,8.74238 -2.87719,2.75012 -5.60582,5.68745 -8.83247,8.01771 -3.25567,2.35122 -7.01915,4.05426 -10.99061,4.6502 -4.83026,0.72481 -9.82134,-0.21289 -14.29898,-2.16416 -3.13754,-1.36728 -6.15569,-3.3229 -7.96301,-6.22931 -1.81425,-2.91754 -2.22807,-6.48813 -2.23266,-9.92375 -0.008,-6.07666 1.11824,-12.09004 2.17848,-18.07349 0.88097,-4.97177 1.71949,-9.95483 2.26013,-14.97502 0.98337,-9.13118 0.9763,-18.35278 0.3199,-27.51327 -0.10993,-1.53416 -0.23754,-3.0832 -0.008,-4.60412 0.22922,-1.52092 0.85475,-3.0367 2.02069,-4.03986 1.07696,-0.9266 2.52093,-1.33598 3.93947,-1.4145 1.41854,-0.0785 2.83404,0.14655 4.23982,0.35197 3.31254,0.48405 6.65159,0.8649 9.88917,1.71656 2.04284,0.53738 4.03315,1.25925 6.0722,1.81081 3.40258,0.92039 6.96639,1.36144 10.46739,0.95192 3.76917,-0.44089 7.42987,-1.85678 11.22363,-1.76474 1.55658,0.0378 3.1015,0.33171 4.58649,0.79985 1.51539,0.47772 3.00914,1.16182 4.12281,2.29512 0.84639,0.8613 1.43579,1.94539 1.87872,3.06879 0.65982,1.67352 1.01492,3.457 1.16703,5.24945 0.13475,1.58788 0.11343,3.19441 0.41433,4.75933 0.49503,2.57458 1.84746,4.92305 3.52848,6.93494 1.68102,2.01189 3.68982,3.72048 5.69641,5.40783 1.99908,1.68103 4.0106,3.35469 6.16708,4.82839 1.0121,0.69165 2.05642,1.33949 3.01736,2.10062 0.96094,0.76113 1.84466,1.6468 2.44543,2.71535 0.81492,1.44944 1.06377,3.2077 0.68307,4.82635 l 2e-5,0"
         id="path14483-3"
         inkscape:connector-curvature="0"
         sodipodi:nodetypes="aaaaaaaaaaaaaaaaaaaaaaaacscaa" /></clipPath><inkscape:path-effect
       effect="spiro"
       id="path-effect14300-2-2-0"
       is_visible="true" /><clipPath
       clipPathUnits="userSpaceOnUse"
       id="clipPath14473-5"><path
         style="fill:url(#linearGradient14477);fill-opacity:1;stroke:none"
         d="m 511.82669,331.89986 c -0.60617,1.40358 -1.44178,2.70776 -2.46357,3.84504 -2.32524,2.58805 -5.50706,4.22246 -8.65855,5.69652 -5.42045,2.53534 -11.00071,4.7788 -16.11556,7.88485 -3.38301,2.05437 -6.53696,4.47221 -9.50169,7.09434 -2.52461,2.23286 -4.92977,4.6271 -7.72763,6.50627 -2.88313,1.93644 -6.17534,3.29888 -9.61582,3.77358 -4.21817,0.58201 -8.55335,-0.18335 -12.51035,-1.75619 -2.7091,-1.07682 -5.36625,-2.6185 -6.96693,-5.05501 -1.53813,-2.3413 -1.9333,-5.25173 -1.95338,-8.053 -0.0354,-4.93859 0.96501,-9.81816 1.90598,-14.66641 0.78215,-4.02995 1.52682,-8.0717 1.97741,-12.15204 0.81784,-7.40607 0.66114,-14.88536 0.27989,-22.32668 -0.064,-1.24906 -0.13361,-2.5105 0.0789,-3.74301 0.21256,-1.23251 0.73646,-2.45247 1.68171,-3.27147 0.93914,-0.8137 2.20952,-1.15942 3.45104,-1.2115 1.24152,-0.0521 2.47642,0.16381 3.70512,0.34927 2.88969,0.43617 5.81087,0.7091 8.65215,1.39297 1.78651,0.43 3.53091,1.02011 5.31265,1.46945 2.98632,0.75312 6.09645,1.10709 9.15804,0.77247 3.2941,-0.36004 6.50688,-1.50957 9.81969,-1.43207 1.35838,0.0318 2.70755,0.27142 4.01277,0.64907 1.31265,0.3798 2.61744,0.9202 3.6071,1.86246 0.72535,0.69061 1.25006,1.56936 1.64371,2.49029 0.57625,1.34814 0.88626,2.79994 1.02105,4.25986 0.11897,1.28855 0.10468,2.59405 0.36251,3.86214 0.4369,2.14878 1.63966,4.08139 3.11506,5.70353 1.4754,1.62214 3.22406,2.96752 4.9559,4.31247 1.75634,1.36398 3.50975,2.7398 5.39565,3.91818 0.88228,0.55128 1.79349,1.05932 2.63473,1.67142 0.84123,0.61209 1.61878,1.33907 2.14473,2.23668 0.68386,1.16711 0.90229,2.59857 0.59763,3.91652 l 2e-5,0"
         id="path14475-9"
         inkscape:connector-curvature="0"
         sodipodi:nodetypes="aaaaaaaaaaaaaaaaaaaaaaaacscaa" /></clipPath><linearGradient
       id="linearGradient14518-6"><stop
         id="stop14540-0"
         offset="0"
         style="stop-color:#110800;stop-opacity:1;" /><stop
         style="stop-color:#a65a00;stop-opacity:0.80000001;"
         offset="0.59066743"
         id="stop14542-5" /><stop
         style="stop-color:#ff921e;stop-opacity:0;"
         offset="1"
         id="stop14522-4" /></linearGradient><inkscape:path-effect
       is_visible="true"
       id="path-effect29716-0-0"
       effect="spiro" /><inkscape:path-effect
       is_visible="true"
       id="path-effect29716-0-8-3"
       effect="spiro" /><inkscape:path-effect
       is_visible="true"
       id="path-effect29716-6-1"
       effect="spiro" /><clipPath
       clipPathUnits="userSpaceOnUse"
       id="clipPath14822-9"><path
         sodipodi:nodetypes="aaaasssaccaa"
         inkscape:connector-curvature="0"
         d="m 386.1875,285.32775 c -0.40516,-1.10369 -1.11845,-2.08156 -1.9907,-2.86987 -0.87226,-0.78832 -1.90049,-1.39229 -2.98278,-1.85155 -2.16459,-0.91852 -4.52053,-1.26149 -6.83152,-1.69556 -2.17919,-0.40931 -4.34179,-0.90631 -6.52782,-1.27734 -2.27136,-0.38551 -4.6179,-0.63213 -6.8653,-0.1253 -1.96583,0.44333 -3.7845,1.45879 -5.27172,2.81864 -1.48723,1.35984 -2.64911,3.0564 -3.48499,4.89007 -1.47218,3.22952 -1.93451,6.86503 -1.65394,10.40316 0.20882,2.63325 0.87532,5.34594 2.60877,7.33912 1.40065,1.61052 3.38733,2.61526 5.43398,3.22092 3.52502,1.04316 7.36663,0.98822 10.86038,-0.1553 5.76689,-1.93113 10.87568,-5.77387 14.33034,-10.77903 1.13861,-1.64963 2.11217,-3.44809 2.5532,-5.4034 0.33597,-1.48955 0.34831,-3.08112 -0.1779,-4.51456"
         id="path14824-1"
         style="fill:none;stroke:#ce5c00;stroke-width:1px;stroke-linecap:butt;stroke-linejoin:miter;stroke-opacity:1" /></clipPath><clipPath
       clipPathUnits="userSpaceOnUse"
       id="clipPath14822-2-4"><path
         sodipodi:nodetypes="aaaasssaccaa"
         inkscape:connector-curvature="0"
         d="m 386.1875,285.32775 c -0.40516,-1.10369 -1.11845,-2.08156 -1.9907,-2.86987 -0.87226,-0.78832 -1.90049,-1.39229 -2.98278,-1.85155 -2.16459,-0.91852 -4.52053,-1.26149 -6.83152,-1.69556 -2.17919,-0.40931 -4.34179,-0.90631 -6.52782,-1.27734 -2.27136,-0.38551 -4.6179,-0.63213 -6.8653,-0.1253 -1.96583,0.44333 -3.7845,1.45879 -5.27172,2.81864 -1.48723,1.35984 -2.64911,3.0564 -3.48499,4.89007 -1.47218,3.22952 -1.93451,6.86503 -1.65394,10.40316 0.20882,2.63325 0.87532,5.34594 2.60877,7.33912 1.40065,1.61052 3.38733,2.61526 5.43398,3.22092 3.52502,1.04316 7.36663,0.98822 10.86038,-0.1553 5.76689,-1.93113 10.87568,-5.77387 14.33034,-10.77903 1.13861,-1.64963 2.11217,-3.44809 2.5532,-5.4034 0.33597,-1.48955 0.34831,-3.08112 -0.1779,-4.51456"
         id="path14824-6-5"
         style="fill:none;stroke:#ce5c00;stroke-width:1px;stroke-linecap:butt;stroke-linejoin:miter;stroke-opacity:1" /></clipPath><inkscape:path-effect
       effect="spiro"
       id="path-effect14972-2-2"
       is_visible="true" /><inkscape:path-effect
       effect="spiro"
       id="path-effect15017-9"
       is_visible="true" /><clipPath
       clipPathUnits="userSpaceOnUse"
       id="clipPath15031-3"><path
         style="fill:none;stroke:#729fcf;stroke-width:0.125;stroke-linecap:butt;stroke-linejoin:miter;stroke-miterlimit:4;stroke-dasharray:none;stroke-opacity:1"
         d="m 248.06066,184.61218 c -2.60091,3.4397 -5.23338,6.85555 -7.89695,10.24696 -2.83301,3.60715 -5.70116,7.1866 -8.58729,10.75139 -3.54135,4.37407 -7.15155,8.79286 -9.44912,13.93045 -1.97407,4.41422 -2.91014,9.20748 -4.26498,13.84932 -1.53862,5.27153 -3.62627,10.37023 -5.97071,15.33612 -2.1648,4.58539 -4.54978,9.06293 -6.93891,13.53553 -1.73823,3.25407 -3.50515,6.58104 -4.10782,10.22071 -0.47627,2.87632 -0.19849,5.84423 0.53376,8.66626 0.73224,2.82202 1.90964,5.5106 3.23775,8.10601 5.66724,11.07504 14.17003,20.62168 24.24176,27.92472 4.57063,3.31418 9.46669,6.18109 14.60245,8.52595 2.78247,1.27041 5.71355,2.40436 8.77186,2.45744 1.52915,0.0265 3.0741,-0.22544 4.47434,-0.84055 1.40024,-0.6151 2.65068,-1.60373 3.48254,-2.88709 1.02278,-1.5779 1.36992,-3.53829 1.16461,-5.40743 -0.2053,-1.86914 -0.93484,-3.65294 -1.91324,-5.25873 -2.38997,-3.92251 -6.1652,-6.76055 -9.79642,-9.57343 -7.84055,-6.07358 -15.42466,-12.48038 -22.68212,-19.23996 -2.04911,-1.90854 -4.0984,-3.87759 -5.53019,-6.28412 -1.3943,-2.34352 -2.14763,-5.01375 -2.65783,-7.69253 -1.39963,-7.34872 -1.0404,-15.0827 1.45958,-22.13343 0.97802,-2.75834 2.27066,-5.39225 3.51815,-8.03965 2.1622,-4.58855 4.21133,-9.26299 7.04933,-13.46723 3.53268,-5.23334 8.24484,-9.67275 11.15147,-15.27803 2.45457,-4.7335 3.49353,-10.05742 4.36185,-15.31831 0.66531,-4.03089 1.24751,-8.07549 1.74613,-12.13037"
         id="path15033-2"
         inkscape:connector-curvature="0"
         sodipodi:nodetypes="czzzzzzzzzzzzzzzszzzzzc" /></clipPath><clipPath
       clipPathUnits="userSpaceOnUse"
       id="clipPath14186-9"><path
         sodipodi:nodetypes="ssssssssssssssss"
         inkscape:connector-curvature="0"
         id="path14188-1"
         d="m 137.57703,281.0191 c 1.59929,-0.66295 3.3982,-0.78361 5.10074,-0.46963 1.70253,0.31398 3.31141,1.04948 4.74342,2.02239 2.86402,1.94583 4.98821,4.77774 7.02263,7.57952 4.67189,6.43406 9.16868,13.00227 13.24488,19.8293 3.30635,5.53766 6.34352,11.25685 10.16415,16.45304 2.49398,3.3919 5.3066,6.53947 7.813,9.92221 2.50639,3.38273 4.72794,7.05586 5.83931,11.11662 1.44411,5.27653 0.88463,11.09291 -1.62666,15.95302 -1.76663,3.41896 -4.47646,6.35228 -7.77242,8.33898 -3.29595,1.9867 -7.17064,3.01444 -11.01635,2.87021 -6.11413,-0.2293 -11.69944,-3.28515 -17.38362,-5.54906 -11.58097,-4.6125 -24.15978,-6.0594 -36.09666,-9.65174 -3.66859,-1.10404 -7.27582,-2.4107 -10.96988,-3.42629 -1.64125,-0.45122 -3.30866,-0.8482 -4.85875,-1.55144 -1.55008,-0.70325 -2.999548,-1.7491 -3.86171,-3.21675 -0.666391,-1.13439 -0.948386,-2.47002 -0.930187,-3.78554 0.0182,-1.31552 0.325889,-2.61453 0.773815,-3.85158 0.895851,-2.47409 2.343262,-4.71374 3.320162,-7.15696 1.59511,-3.98935 1.88169,-8.38839 1.66657,-12.67942 -0.21511,-4.29103 -0.91078,-8.54478 -1.20454,-12.83115 -0.13118,-1.91406 -0.18066,-3.85256 0.18479,-5.73598 0.36545,-1.88343 1.17577,-3.72459 2.55771,-5.05541 1.27406,-1.22693 2.96492,-1.95531 4.69643,-2.31651 1.73151,-0.3612 3.51533,-0.37747 5.28367,-0.33762 1.76833,0.0399 3.54067,0.13425 5.30351,-0.0106 1.76284,-0.14488 3.53347,-0.54055 5.06911,-1.41828 1.45996,-0.83447 2.65433,-2.0745 3.64374,-3.43424 0.9894,-1.35974 1.78909,-2.84573 2.60891,-4.31396 0.81983,-1.46823 1.66834,-2.93151 2.74157,-4.22611 1.07324,-1.2946 2.38923,-2.42304 3.94266,-3.06698"
         style="fill:#402c07;fill-opacity:1;stroke:none" /></clipPath><inkscape:path-effect
       is_visible="true"
       id="path-effect4669-1"
       effect="spiro" /><inkscape:path-effect
       is_visible="true"
       id="path-effect4669-4-3"
       effect="spiro" /></defs><sodipodi:namedview
     pagecolor="#000000"
     bordercolor="#666666"
     borderopacity="1.0"
     inkscape:pageopacity="0.0"
     inkscape:pageshadow="2"
     inkscape:zoom="1.9873998"
     inkscape:cx="254.60403"
     inkscape:cy="214.35043"
     inkscape:document-units="mm"
     inkscape:current-layer="layer1"
     showgrid="false"
     units="mm"
     showguides="false"
     inkscape:guide-bbox="true"
     inkscape:snap-global="true"
     inkscape:snap-bbox="true"
     inkscape:snap-bbox-midpoints="true"
     inkscape:window-width="1920"
     inkscape:window-height="1020"
     inkscape:window-x="0"
     inkscape:window-y="0"
     inkscape:window-maximized="1"
     inkscape:bbox-paths="true"
     inkscape:bbox-nodes="true"
     inkscape:snap-bbox-edge-midpoints="true"
     inkscape:snap-grids="true"
     id="namedview1"
     inkscape:showpageshadow="2"
     inkscape:pagecheckerboard="0"
     inkscape:deskcolor="#d1d1d1"><sodipodi:guide
       orientation="1,0"
       position="226.771653543,226.771653543"
       id="guide2827"
       inkscape:locked="false" /><sodipodi:guide
       orientation="0,1"
       position="226.771653543,226.771653543"
       id="guide2829"
       inkscape:locked="false" /><inkscape:grid
       type="xygrid"
       id="grid3072"
       empspacing="10"
       visible="false"
       enabled="true"
       snapvisiblegridlinesonly="true"
       units="mm"
       dotted="false"
       spacingx="0.1mm"
       spacingy="0.1mm"
       originx="0"
       originy="0" /><sodipodi:guide
       position="60,120"
       orientation="1,0"
       id="guide21"
       inkscape:locked="false" /><sodipodi:guide
       position="0,60"
       orientation="0,-1"
       id="guide22"
       inkscape:locked="false" /></sodipodi:namedview><metadata
     id="metadata2822"><rdf:RDF><cc:Work
         rdf:about=""><dc:format>image/svg+xml</dc:format><dc:type
           rdf:resource="http://purl.org/dc/dcmitype/StillImage" /></cc:Work></rdf:RDF></metadata><g
     inkscape:label="CD"
     inkscape:groupmode="layer"
     id="Template"
     style="fill:none;stroke:#000000;stroke-width:0.05"
     sodipodi:insensitive="true"><circle
       cx="0"
       cy="0"
       r="60"
       id="circle1"
       style="fill:url(#radialGradient9)" /></g><g
     inkscape:groupmode="layer"
     id="layer1"
     inkscape:label="Design"><circle
       cx="0"
       cy="0"
       id="circle1-6"
       style="fill:#ffffff;fill-opacity:1;stroke:none;stroke-width:0.0499998"
       r="57.974998" /><path
       d="M 54.754236,-18.999919 A 57.974998,57.974998 0 0 0 -4.4759115e-5,-57.974801 57.974998,57.974998 0 0 0 -57.974801,-4.4759115e-5 57.974998,57.974998 0 0 0 -54.631852,18.999829 H -4.4759115e-5 v -37.999748 z"
       style="fill:#4a95ec;fill-opacity:1;stroke-width:0.0499998"
       id="path39"
       sodipodi:insensitive="true" /><g
       inkscape:label="Layer 1"
       id="layer1-4"
       transform="matrix(0.03733166,0,0,0.03733166,-19.281702,32.705023)"
       style="display:inline;fill:#000000;fill-opacity:1;stroke-width:7.08735"><text
         xml:space="preserve"
         style="font-style:normal;font-variant:normal;font-weight:bold;font-stretch:normal;font-size:165.278px;line-height:1.1;font-family:Orbitron;-inkscape-font-specification:'Orbitron Bold';text-align:center;text-anchor:middle;display:none;fill:#000000;fill-opacity:1;stroke:none;stroke-width:70.8735;stroke-dasharray:none;stroke-opacity:1;paint-order:markers stroke fill"
         x="268.51245"
         y="456.47513"
         id="text21"
         inkscape:label="lower"><tspan
           sodipodi:role="line"
           x="0"
           y="0"
           style="fill:#000000;fill-opacity:1;stroke-width:70.8735"
           id="tspan28">.dev</tspan></text><path
         d="m 36.75985,374.56018 v 0 -8.50307 L 138.63299,252.23788 86.885677,191.50159 v -8.50309 h 34.498233 l 37.89942,44.70191 85.41479,-93.53403 h 34.49823 v 8.50307 l -99.26266,109.56843 51.74732,63.16576 v 8.50307 h -34.25529 l -38.14239,-46.64548 -88.025254,97.29895 z"
         id="path21-3"
         style="font-weight:bold;font-size:146.048px;line-height:1.1;font-family:Orbitron;-inkscape-font-specification:'Orbitron Bold';text-align:center;text-anchor:middle;display:inline;fill:#000000;fill-opacity:1;stroke-width:70.8735;paint-order:markers stroke fill"
         aria-label="0x4248"
         sodipodi:nodetypes="cccccccccccccccccc"
         inkscape:label="X" /><text
         xml:space="preserve"
         style="font-style:normal;font-variant:normal;font-weight:bold;font-stretch:normal;font-size:243.308px;line-height:1.1;font-family:Arial;-inkscape-font-specification:'Arial Bold';text-align:end;text-anchor:end;display:none;fill:#000000;fill-opacity:1;stroke:none;stroke-width:70.8735;stroke-dasharray:none;stroke-opacity:1;paint-order:markers stroke fill"
         x="999.24969"
         y="326.83789"
         id="text1"
         transform="scale(1.0112213,0.98890323)"
         inkscape:label="4248"><tspan
           sodipodi:role="line"
           id="tspan1"
           x="0"
           y="0"
           style="font-style:normal;font-variant:normal;font-weight:bold;font-stretch:normal;font-family:Orbitron;-inkscape-font-specification:'Orbitron Bold';fill:#000000;fill-opacity:1;stroke-width:70.8735">4248</tspan></text><path
         d="m 86.67114,456.47513 v 0 -21.65142 h 21.65142 v 21.65142 z m 55.20273,0 q -6.44584,0 -11.56946,-3.14028 -5.12362,-3.14029 -8.2639,-8.2639 -2.975,-5.12362 -2.975,-11.40419 v -50.24451 q 0,-6.28056 2.975,-11.40418 3.14028,-5.12362 8.2639,-8.2639 5.12362,-3.14028 11.56946,-3.14028 h 53.05424 v -31.40282 h 21.65142 v 127.26406 z m 0.99167,-21.65142 h 50.07923 q 0.82639,0 1.32223,-0.49583 0.66111,-0.66112 0.66111,-1.48751 v -48.59173 q 0,-0.82639 -0.66111,-1.32222 -0.49584,-0.66111 -1.32223,-0.66111 h -50.07923 q -0.82639,0 -1.4875,0.66111 -0.49584,0.49583 -0.49584,1.32222 v 48.59173 q 0,0.82639 0.49584,1.48751 0.66111,0.49583 1.4875,0.49583 z m 110.22915,21.65142 q -6.28056,0 -11.40418,-3.14028 -5.12362,-3.14029 -8.2639,-8.2639 -3.14028,-5.12362 -3.14028,-11.40419 v -50.24451 q 0,-6.28056 3.14028,-11.40418 3.14028,-5.12362 8.2639,-8.2639 5.12362,-3.14028 11.40418,-3.14028 h 51.73202 q 6.28056,0 11.40418,3.14028 5.28889,3.14028 8.2639,8.2639 3.14028,5.12362 3.14028,11.40418 v 36.03061 h -75.69732 v 13.38751 q 0,0.82639 0.49583,1.48751 0.66111,0.49583 1.4875,0.49583 h 73.71399 v 21.65142 z m -1.15694,-56.52508 h 54.0459 v -15.70141 q 0,-0.82639 -0.66111,-1.32222 -0.49583,-0.66111 -1.32222,-0.66111 h -50.07924 q -0.82639,0 -1.4875,0.66111 -0.49583,0.49583 -0.49583,1.32222 z m 132.96577,56.52508 v 0 l -52.72368,-95.86124 h 24.95698 l 37.84866,69.58204 37.68339,-69.58204 h 24.95697 l -52.88896,95.86124 z"
         id="text2"
         style="font-weight:bold;font-size:165.278px;line-height:1.1;font-family:Orbitron;-inkscape-font-specification:'Orbitron Bold';text-align:center;text-anchor:middle;display:none;fill:#000000;fill-opacity:1;stroke-width:70.8735;paint-order:markers stroke fill"
         inkscape:label="lower"
         aria-label=".dev" /><path
         style="font-weight:bold;font-size:243.308px;line-height:1.1;font-family:Orbitron;-inkscape-font-specification:'Orbitron Bold';text-align:end;text-anchor:end;fill:#000000;fill-opacity:1;stroke-width:70.8735;paint-order:markers stroke fill"
         d="m 350.83421,326.83789 v 0 -44.03875 H 240.61569 V 252.87226 L 352.78067,151.65613 h 29.92689 v 99.02636 h 24.5741 v 32.11665 h -24.5741 v 44.03875 z m -60.58369,-76.1554 v 0 h 60.58369 v -50.60807 z m 140.3886,76.1554 v 0 -67.15301 q 0,-9.48901 4.62286,-17.03156 4.62285,-7.54254 12.1654,-11.92209 7.54254,-4.62285 16.78825,-4.62285 h 105.10905 q 1.21654,0 1.94647,-0.72992 0.97323,-0.97324 0.97323,-2.18978 v -36.7395 q 0,-1.21654 -0.97323,-1.94647 -0.72993,-0.97323 -1.94647,-0.97323 H 465.43217 q -1.21654,0 -2.18977,0.97323 -0.72993,0.72993 -0.72993,1.94647 v 11.92209 h -31.87335 v -13.13863 q 0,-9.48902 4.62286,-17.03156 4.62285,-7.54255 12.1654,-11.9221 7.54254,-4.62285 16.78825,-4.62285 h 106.32559 q 9.24571,0 16.78826,4.62285 7.78585,4.37955 12.1654,11.9221 4.62285,7.54254 4.62285,17.03156 v 39.41589 q 0,9.0024 -4.62285,16.78825 -4.37955,7.54255 -12.1654,12.1654 -7.54255,4.62286 -16.78826,4.62286 H 465.43217 q -1.21654,0 -2.18977,0.97323 -0.72993,0.72992 -0.72993,1.94646 v 30.90012 q 0,1.21654 0.72993,2.18977 0.97323,0.72992 2.18977,0.72992 h 138.68556 v 31.87335 z m 299.75545,0 v 0 -44.03875 H 620.17605 V 252.87226 L 732.34104,151.65613 h 29.92688 v 99.02636 h 24.57411 v 32.11665 h -24.57411 v 44.03875 z m -60.58369,-76.1554 v 0 h 60.58369 v -50.60807 z m 173.96507,76.1554 q -9.24571,0 -16.78826,-4.62285 -7.54254,-4.62285 -12.1654,-12.1654 -4.62285,-7.54255 -4.62285,-16.78825 v -38.19936 q 0,-4.37954 1.45985,-8.75909 1.45985,-4.62285 3.64962,-8.75908 -2.18977,-4.13624 -3.64962,-8.51578 -1.45985,-4.62286 -1.45985,-9.24571 v -34.54973 q 0,-9.48902 4.62285,-17.03156 4.62286,-7.54255 12.1654,-11.9221 7.54255,-4.62285 16.78826,-4.62285 h 106.32559 q 8.02917,0 15.0851,3.64962 7.05593,3.64962 11.92209,9.97563 5.10947,6.32601 6.56932,13.86856 v 40.63243 q 0,9.0024 -5.10947,17.76149 5.10947,8.02916 5.10947,17.51817 v 38.19936 q 0,9.2457 -4.62286,16.78825 -4.62285,7.54255 -12.1654,12.1654 -7.54254,4.62285 -16.78825,4.62285 z m 1.21654,-31.87335 v 0 H 948.885 q 1.21654,0 1.94647,-0.72992 0.97323,-0.97323 0.97323,-2.18977 v -35.52297 q 0,-1.21654 -0.97323,-1.94646 -0.72993,-0.97324 -1.94647,-0.97324 H 844.99249 q -1.21654,0 -2.18978,0.97324 -0.72992,0.72992 -0.72992,1.94646 v 35.52297 q 0,1.21654 0.72992,2.18977 0.97324,0.72992 2.18978,0.72992 z m 0,-70.80262 v 0 H 948.885 q 1.21654,0 1.94647,-0.97324 0.97323,-0.97323 0.97323,-1.94646 v -34.54974 q 0,-1.21654 -0.97323,-1.94646 -0.72993,-0.97323 -1.94647,-0.97323 H 844.99249 q -1.21654,0 -2.18978,0.97323 -0.72992,0.72992 -0.72992,1.94646 v 34.54974 q 0,0.97323 0.72992,1.94646 0.97324,0.97324 2.18978,0.97324 z"
         id="text3"
         inkscape:label="4248"
         transform="scale(1.0112213,0.98890323)"
         aria-label="4248" /></g><g
       id="g1"
       transform="matrix(0.04804043,0,0,0.04804043,-51.268347,13.987545)"
       style="display:inline;fill:#ffffff;fill-opacity:1;stroke-width:1.95576">
	
	<path
   d="m 37.441,-3.5 c 8.951,0 16.572,3.125 22.857,9.372 3.008,3.009 5.295,6.448 6.857,10.314 1.561,3.867 2.344,7.971 2.344,12.314 0,4.381 -0.773,8.486 -2.314,12.313 -1.543,3.828 -3.82,7.21 -6.828,10.143 -3.123,3.085 -6.666,5.448 -10.629,7.086 -3.961,1.638 -8.057,2.457 -12.285,2.457 -4.228,0 -8.276,-0.808 -12.143,-2.429 C 21.434,56.452 17.967,54.109 14.9,51.043 11.833,47.977 9.5,44.519 7.9,40.671 6.3,36.823 5.5,32.767 5.5,28.5 5.5,24.271 6.309,20.205 7.928,16.3 9.547,12.395 11.9,8.9 14.985,5.814 21.08,-0.394 28.565,-3.5 37.441,-3.5 Z m 0.116,5.772 c -7.314,0 -13.467,2.553 -18.458,7.657 -2.515,2.553 -4.448,5.419 -5.8,8.6 -1.354,3.181 -2.029,6.505 -2.029,9.972 0,3.429 0.675,6.734 2.029,9.913 1.353,3.183 3.285,6.021 5.8,8.516 2.514,2.496 5.351,4.399 8.515,5.715 3.161,1.314 6.476,1.971 9.943,1.971 3.428,0 6.75,-0.665 9.973,-1.999 3.219,-1.335 6.121,-3.257 8.713,-5.771 4.99,-4.876 7.484,-10.99 7.484,-18.344 0,-3.543 -0.648,-6.895 -1.943,-10.057 C 60.491,15.283 58.604,12.465 56.13,9.987 50.984,4.844 44.795,2.272 37.557,2.272 Z m -0.401,20.915 -4.287,2.229 c -0.458,-0.951 -1.019,-1.619 -1.685,-2 -0.667,-0.38 -1.286,-0.571 -1.858,-0.571 -2.856,0 -4.286,1.885 -4.286,5.657 0,1.714 0.362,3.084 1.085,4.113 0.724,1.029 1.791,1.544 3.201,1.544 1.867,0 3.181,-0.915 3.944,-2.743 l 3.942,2 c -0.838,1.563 -2,2.791 -3.486,3.686 -1.484,0.896 -3.123,1.343 -4.914,1.343 -2.857,0 -5.163,-0.875 -6.915,-2.629 -1.752,-1.752 -2.628,-4.19 -2.628,-7.313 0,-3.048 0.886,-5.466 2.657,-7.257 1.771,-1.79 4.009,-2.686 6.715,-2.686 3.963,-0.002 6.8,1.541 8.515,4.627 z m 18.457,0 -4.229,2.229 c -0.457,-0.951 -1.02,-1.619 -1.686,-2 -0.668,-0.38 -1.307,-0.571 -1.914,-0.571 -2.857,0 -4.287,1.885 -4.287,5.657 0,1.714 0.363,3.084 1.086,4.113 0.723,1.029 1.789,1.544 3.201,1.544 1.865,0 3.18,-0.915 3.941,-2.743 l 4,2 c -0.875,1.563 -2.057,2.791 -3.541,3.686 -1.486,0.896 -3.105,1.343 -4.857,1.343 -2.896,0 -5.209,-0.875 -6.941,-2.629 -1.736,-1.752 -2.602,-4.19 -2.602,-7.313 0,-3.048 0.885,-5.466 2.658,-7.257 1.77,-1.79 4.008,-2.686 6.713,-2.686 3.962,-0.002 6.783,1.541 8.458,4.627 z"
   id="path1-5"
   style="fill:#ffffff;fill-opacity:1;stroke-width:1.95576" />
</g><text
       xml:space="preserve"
       style="font-style:normal;font-variant:normal;font-weight:normal;font-stretch:normal;font-size:10.5833px;font-family:Orbitron;-inkscape-font-specification:Orbitron;text-align:start;writing-mode:lr-tb;direction:ltr;text-anchor:start;opacity:1;fill:#ffffff;fill-opacity:1;stroke:#cccccc;stroke-width:1;stroke-linecap:round;stroke-linejoin:round"
       x="-0.068791203"
       y="-37.713676"
       id="text60"><tspan
         sodipodi:role="line"
         id="tspan60"
         style="font-style:normal;font-variant:normal;font-weight:900;font-stretch:normal;font-size:10.5833px;font-family:Orbitron;-inkscape-font-specification:'Orbitron Heavy';text-align:center;text-anchor:middle;fill:#ffffff;fill-opacity:1;stroke:none;stroke-width:1"
         x="-0.0687913"
         y="-37.713676">BUSYBOX</tspan></text><text
       xml:space="preserve"
       style="font-style:normal;font-variant:normal;font-weight:bold;font-stretch:normal;font-size:5.38757px;font-family:Orbitron;-inkscape-font-specification:'Orbitron Bold';text-align:start;writing-mode:lr-tb;direction:ltr;text-anchor:start;fill:#ffffff;fill-opacity:1;stroke:#cccccc;stroke-width:1;stroke-linecap:round;stroke-linejoin:round"
       x="0.16970567"
       y="-31.178041"
       id="text60-2"><tspan
         sodipodi:role="line"
         id="tspan60-3"
         style="font-style:normal;font-variant:normal;font-weight:bold;font-stretch:normal;font-size:5.38757px;font-family:Orbitron;-inkscape-font-specification:'Orbitron Bold';text-align:center;text-anchor:middle;fill:#ffffff;fill-opacity:1;stroke:none;stroke-width:1"
         x="0.16970544"
         y="-31.178041">1.37.0</tspan></text><text
       xml:space="preserve"
       style="font-style:normal;font-variant:normal;font-weight:bold;font-stretch:normal;font-size:7.05556px;font-family:Orbitron;-inkscape-font-specification:'Orbitron Bold';text-align:start;writing-mode:lr-tb;direction:ltr;text-anchor:start;opacity:0.998908;fill:#ffffff;fill-opacity:1;stroke-width:1;stroke-linecap:round;stroke-linejoin:round"
       x="-8.2620592"
       y="-21.771774"
       id="text32"><tspan
         sodipodi:role="line"
         id="tspan32"
         style="fill:#ffffff;fill-opacity:1;stroke-width:1"
         x="-8.2620592"
         y="-21.771774">x86</tspan></text><text
       xml:space="preserve"
       style="font-style:normal;font-variant:normal;font-weight:bold;font-stretch:normal;font-size:3.52778px;font-family:Orbitron;-inkscape-font-specification:'Orbitron Bold';text-align:start;writing-mode:lr-tb;direction:ltr;text-anchor:start;opacity:1;fill:#ffffff;fill-opacity:1;stroke-width:1;stroke-linecap:round;stroke-linejoin:round"
       x="-29.942703"
       y="16.656294"
       id="text33"><tspan
         sodipodi:role="line"
         id="tspan33"
         style="font-size:3.52778px;fill:#ffffff;fill-opacity:1;stroke-width:1"
         x="-29.942703"
         y="16.656294">CD-R</tspan></text><text
       xml:space="preserve"
       style="font-style:normal;font-variant:normal;font-weight:normal;font-stretch:normal;font-size:2.11667px;line-height:1;font-family:'Noto Sa';-inkscape-font-specification:'Noto Sa';text-align:center;writing-mode:lr-tb;direction:ltr;text-anchor:middle;white-space:pre;inline-size:37.3122;display:inline;opacity:1;fill:#ffffff;fill-opacity:1;stroke-width:1;stroke-linecap:round;stroke-linejoin:round"
       x="-35.716606"
       y="-4.3040576"
       id="text41"
       transform="translate(-1.9372952,-2.3497725)"><tspan
         x="-35.716606"
         y="-4.3040576"
         id="tspan5"><tspan
   style="font-weight:bold;font-family:'Noto Sans';-inkscape-font-specification:'Noto Sans Medium'"
   id="tspan3">Busybox 1.37.0 for Intel and</tspan> <tspan
   style="font-weight:bold;font-family:'Noto Sans';-inkscape-font-specification:'Noto Sans Medium'"
   id="tspan4">AMD</tspan><tspan
   y="-4.3040576"
   id="tspan6"> </tspan></tspan><tspan
         x="-35.716606"
         y="-2.1342389"
         id="tspan14"><tspan
           style="font-weight:bold;font-family:'Noto Sans';-inkscape-font-specification:'Noto Sans Medium'"
           id="tspan10">systems
</tspan></tspan><tspan
         x="-35.716606"
         y="0.035579712"
         id="tspan30"><tspan
           style="font-weight:bold;font-family:'Noto Sans';-inkscape-font-specification:'Noto Sans Medium'"
           id="tspan29">
</tspan></tspan><tspan
         x="-35.716606"
         y="2.2053984"
         id="tspan34"><tspan
   style="font-weight:500;font-family:'Noto Sans';-inkscape-font-specification:'Noto Sans Medium'"
   id="tspan31">Contains ready to install binaries.</tspan><tspan
   y="2.2053984"
   id="tspan35"> </tspan></tspan><tspan
         x="-35.716606"
         y="4.375217"
         id="tspan38"><tspan
   style="font-weight:500;font-family:'Noto Sans';-inkscape-font-specification:'Noto Sans Medium'"
   id="tspan36">This</tspan> <tspan
   style="font-weight:500;font-family:'Noto Sans';-inkscape-font-specification:'Noto Sans Medium'"
   id="tspan37">disk is not bootable
</tspan></tspan><tspan
         x="-35.716606"
         y="6.5450354"
         id="tspan40"><tspan
           style="font-weight:500;font-family:'Noto Sans';-inkscape-font-specification:'Noto Sans Medium'"
           id="tspan39">January 2023
</tspan></tspan><tspan
         x="-35.716606"
         y="8.7148543"
         id="tspan42"><tspan
           style="font-weight:500;font-family:'Noto Sans';-inkscape-font-specification:'Noto Sans Medium'"
           id="tspan41">English</tspan></tspan></text><text
       xml:space="preserve"
       style="font-style:normal;font-variant:normal;font-weight:500;font-stretch:normal;font-size:3.69104px;line-height:1;font-family:'Noto Sans';-inkscape-font-specification:'Noto Sans Medium';text-align:center;writing-mode:lr-tb;direction:ltr;text-anchor:middle;opacity:1;fill:#000000;fill-opacity:1;stroke-width:1;stroke-linecap:round;stroke-linejoin:round"
       x="-0.12665966"
       y="24.52346"
       id="text48"><tspan
         sodipodi:role="line"
         id="tspan48"
         style="font-style:normal;font-variant:normal;font-weight:900;font-stretch:normal;font-family:Orbitron;-inkscape-font-specification:'Orbitron Heavy';fill:#000000;fill-opacity:1;stroke-width:1"
         x="-0.12665956"
         y="24.52346">DISC 1</tspan></text><path
       d="m 15.533052,28.917447 v 0 -1.326992 L 31.431415,9.82778 23.355707,0.34925101 v -1.326996 h 5.383808 L 34.654114,5.998453 47.98398,-8.598505 h 5.383808 v 1.326993 l -15.49097,17.099292 8.075708,9.857673 v 1.326993 H 40.606632 L 34.654114,13.732934 20.916858,28.917447 Z"
       id="path21-3-0"
       style="font-weight:bold;font-size:146.048px;line-height:1.1;font-family:Orbitron;-inkscape-font-specification:'Orbitron Bold';text-align:center;text-anchor:middle;display:inline;fill:#000000;fill-opacity:1;stroke-width:1.5606;paint-order:markers stroke fill;opacity:0.06"
       aria-label="0x4248" /><text
       xml:space="preserve"
       style="font-style:normal;font-variant:normal;font-weight:normal;font-stretch:normal;font-size:2.49151px;line-height:1;font-family:'IBM Plex Mono';-inkscape-font-specification:'IBM Plex Mono';text-align:start;text-anchor:start;fill:#f9f9f9;fill-opacity:1;fill-rule:evenodd;stroke:none;stroke-width:0.211878;stroke-linejoin:round;stroke-dasharray:none;stroke-opacity:1;paint-order:markers fill stroke"
       x="-39.601673"
       y="15.842587"
       id="text70"><tspan
         sodipodi:role="line"
         id="tspan70"
         style="font-style:normal;font-variant:normal;font-weight:normal;font-stretch:normal;font-family:Georgia;-inkscape-font-specification:Georgia;fill:#f9f9f9;stroke-width:0.211878"
         x="-39.601673"
         y="15.842587">LINUX</tspan></text><text
       xml:space="preserve"
       style="font-style:normal;font-variant:normal;font-weight:normal;font-stretch:normal;font-size:1.15627px;line-height:1;font-family:Georgia;-inkscape-font-specification:Georgia;text-align:start;text-anchor:start;fill:#f9f9f9;fill-opacity:1;fill-rule:evenodd;stroke:none;stroke-width:0.211878;stroke-linejoin:round;stroke-dasharray:none;stroke-opacity:1;paint-order:markers fill stroke"
       x="-33.805134"
       y="19.670401"
       id="text71"
       transform="scale(1.1710317,0.85394784)"><tspan
         sodipodi:role="line"
         id="tspan71"
         style="font-style:normal;font-variant:normal;font-weight:normal;font-stretch:normal;font-family:Mono;-inkscape-font-specification:Mono;fill:#f9f9f9;stroke-width:0.211878"
         x="-33.805134"
         y="19.670401">Compatible</tspan></text><text
       xml:space="preserve"
       style="font-size:1.72275px;text-align:center;writing-mode:lr-tb;direction:ltr;text-anchor:middle;fill:#f9f9f9;stroke-width:0.0430688"
       x="-43.689651"
       y="16.797501"
       id="text4"><tspan
         sodipodi:role="line"
         id="tspan2"
         style="font-style:normal;font-variant:normal;font-weight:900;font-stretch:normal;font-family:Orbitron;-inkscape-font-specification:'Orbitron Heavy';stroke-width:0.0430688"
         x="-43.689651"
         y="16.797501">9660</tspan></text><text
       xml:space="preserve"
       style="font-size:2.29978px;text-align:center;writing-mode:lr-tb;direction:ltr;text-anchor:middle;fill:#f9f9f9;stroke-width:0.0574945"
       x="-32.713524"
       y="20.500294"
       id="text4-2"
       transform="scale(1.3349436,0.74909532)"><tspan
         sodipodi:role="line"
         id="tspan2-9"
         style="font-style:normal;font-variant:normal;font-weight:900;font-stretch:normal;font-family:Orbitron;-inkscape-font-specification:'Orbitron Heavy';stroke-width:0.0574945"
         x="-32.713524"
         y="20.500294">ISO</tspan></text></g><g
     inkscape:groupmode="layer"
     id="layer2"
     inkscape:label="CD TOP"
     sodipodi:insensitive="true"><circle
       cx="0"
       cy="0"
       r="19"
       id="circle2"
       style="fill:url(#radialGradient15);fill-opacity:1;stroke:#000000;stroke-width:0.05" /><circle
       cx="0"
       cy="0"
       r="7.5"
       id="circle3"
       style="display:inline;fill:#ffffff;fill-opacity:1;stroke:#000000;stroke-width:0.05" /></g><path
     style="fill:none;fill-opacity:0.933649;fill-rule:evenodd;stroke:none;stroke-width:2;stroke-linejoin:round;stroke-opacity:1;paint-order:markers fill stroke"
     d="m -19,-0.7 c 1.118949,19.025002 19.06056296,18.999782 19.06056296,18.999782 0,0 17.64152004,0.02522 18.93943704,-18.999782"
     id="path24"
     sodipodi:nodetypes="ccc" /><text
     xml:space="preserve"
     style="font-style:normal;font-variant:normal;font-weight:bold;font-stretch:normal;font-size:1.05833px;line-height:1;font-family:Mono;-inkscape-font-specification:'Mono Bold';text-align:center;letter-spacing:0px;word-spacing:0px;text-anchor:middle;fill:#ffffff;fill-opacity:0.507009;fill-rule:evenodd;stroke:none;stroke-width:0.01;stroke-linejoin:round;stroke-dasharray:none;stroke-opacity:1;paint-order:markers fill stroke"
     id="text25"><textPath
       xlink:href="#path24"
       startOffset="50%"
       id="textPath25"
       style="font-style:normal;font-variant:normal;font-weight:normal;font-stretch:normal;font-size:1.05833px;font-family:Monospace;-inkscape-font-specification:Monospace;fill:#ffffff;fill-opacity:0.507009;stroke:none">0x4248 2025</textPath></text><path
     style="fill:none;fill-opacity:0.507009;fill-rule:evenodd;stroke:none;stroke-width:0.01;stroke-linejoin:round;stroke-dasharray:none;stroke-opacity:1;paint-order:markers fill stroke"
     d="m -57.974998,-1.6934055e-6 c 0,0 5.452601,56.6520826934055 57.97114471,56.6520826934055 C 52.51469,56.652082 57.974998,-1.6934055e-6 57.974998,-1.6934055e-6"
     id="path26"
     sodipodi:nodetypes="czc"
     inkscape:label="path26" /><text
     xml:space="preserve"
     style="font-weight:bold;font-size:1.05833px;line-height:1;font-family:'Bai Jamjuree';-inkscape-font-specification:'Bai Jamjuree, Bold';text-align:center;letter-spacing:0px;word-spacing:0px;text-anchor:middle;fill:#1a1a1a;fill-opacity:0.507009;fill-rule:evenodd;stroke:none;stroke-width:0.01;stroke-linejoin:round;stroke-dasharray:none;stroke-opacity:1;paint-order:markers fill stroke"
     id="text26"><textPath
       xlink:href="#path26"
       startOffset="50%"
       id="textPath26"><tspan
         id="tspan26"
         style="font-style:normal;font-variant:normal;font-weight:normal;font-stretch:normal;font-size:1.05833px;font-family:sans-serif;-inkscape-font-specification:sans-serif;fill:#1a1a1a;fill-opacity:1;stroke-width:0.01">Copyright  2025 0x4248 and 4248 Media, A division of 0x4248. Cover art licenced under CC BY-SA 4.0. See disc contents for data licence.</tspan></textPath></text></svg>
